<?xml version="1.0" encoding="UTF-8"?>
<svg id="Laag_2" data-name="Laag 2" xmlns="http://www.w3.org/2000/svg" viewBox="0 0 90.31 92.56">
  <defs>
    <style>
      .cls-1 {
        fill: #d6dcad;
      }

      .cls-2 {
        fill: #8a90c2;
      }

      .cls-3 {
        fill: #fdfdfd;
      }

      .cls-4 {
        fill: #c5beb9;
      }

      .cls-5 {
        fill: #6b5f57;
      }

      .cls-6 {
        fill: #3c362f;
      }
    </style>
  </defs>
  <g id="Laag_1-2" data-name="Laag 1">
    <g>
      <path class="cls-3" d="M90.3,46.28c0,15.16,0,30.31,.02,45.47,0,.63-.08,.82-.78,.81-29.6-.02-59.2-.02-88.79,0-.63,0-.74-.16-.74-.75C.02,61.46,.03,31.11,0,.77,0,.04,.23,0,.83,0,30.4,.02,59.96,.02,89.53,0c.68,0,.79,.16,.79,.8-.02,15.16-.02,30.31-.02,45.47ZM17.14,6.88c-.06,0-.13,.02-.19,.03-.45,.18-.91,.35-1.36,.53-1.21,.13-2.37,.56-3.64,.23-.73-.19-1.6-.21-2.07,.71-.61,1.2-1.04,2.46-1.38,3.75-.27,1.03-.54,2.13-.2,3.12,.35,1.02,.24,2.07,.51,3.08,.17,1.2,.34,2.4,.92,3.49,.21,1.05,.41,2.11,.64,3.15,.12,.54-.05,.82-.59,.93-.4,.08-.8,.21-1.17,.39-.48,.24-.87,.69-.75,1.21,.14,.57,.66,.56,1.15,.33,.1-.04,.25,.04,.37,.06,.06,.1,.12,.21,.18,.31-.33,.39-.69,.75-.98,1.16-1.41,1.96-2.8,3.93-2.82,6.48-.45,.88-.45,1.77,.02,2.64,.03,2.57,1.62,4.33,3.19,6.09,.17,.51,1.11,.35,.97,1.12-.2,.29-.66,.36-.68,.8-1.58,.65-2.96,1.87-4.87,1.62-.51-.07-.59,.54-.33,.87,.76,.96,.34,1.82-.1,2.7-.38,.76-.74,1.52-.61,2.4,.22,.78,.77,.4,1.17,.28,1.52-.43,2.9-1.19,4.27-1.98,.5,.12,1,.23,1.5,.35,.18,.76-.33,1.15-.86,1.46-1.37,.79-2.8,1.41-4.4,1.65-.67,.1-1.5,.28-1.83,.96-.71,1.47,.22,2.9,1.91,3.08,.22,.02,.46-.02,.68,.01,.27,.03,.66-.17,.77,.19,.1,.3-.31,.34-.49,.51-.61,.58-1.4,.91-1.97,1.55-.39,.43-.42,.77-.1,1.27,.8,1.24,1.98,2,3.18,2.78,.67,.43,1.48,.64,2.01,1.3-.07,.21-.14,.42-.2,.63-1.04,4.16-2.09,8.33-3.11,12.49-.3,1.25-.78,2.42-1.27,3.6-.55,1.32-.43,1.47,1.02,1.32,.48-.05,.95-.16,1.42-.24,2.31-.23,4.64-.35,6.93-.72,3.29-.54,6.61-.86,9.92-1.1,3.42-.25,6.86-.38,10.29-.57,3.19-.18,6.41-.03,9.61-.03,.37,.42,.92-.01,1.32,.29,.68,.42,1.38,.73,2.18,.3,.38-.03,.77-.09,1.15-.07,1.24,.06,2.48,.14,3.72,.22,2.59,.12,5.21-.16,7.77,.43,.54,.43,1.17,.09,1.75,.2,2.73,.51,5.46,1,8.18,1.5,.83,.12,1.67,.29,2.52,.24,.12,.29,.38,.19,.58,.19,3.41-.05,6.81-.1,10.21,.19,.89,.08,1.76-.27,2.67-.21,.9,.06,.96-.12,.49-.98-.51-.64-.94-1.31-1.2-2.1-.41-1.24-.87-2.46-1.31-3.7-.12-.42-.23-.85-.36-1.27-.72-2.38-1.23-4.84-2.32-7.1-.71-2.54-1.38-5.1-.98-7.78,.08-.52,.26-1.02,.4-1.53,.24-.47,.45-.95,.71-1.4,.25-.44,.39-.94,.22-1.37-.21-.51-.12-1.01-.14-1.51,.9-.77,2.02-1.02,3.14-1.17,.73-.1,1.21-.41,1.67-1.35-2.78,.85-5.38,1.35-7.95,2-.98-.24-1.87,.02-2.72,.48-.07,0-.13,0-.2-.01-.31-.25-.5-.18-.58,.2-1.28,.42-2.57,.82-3.84,1.28-.26,.09-.5,.14-.75,.11-1.75-.15-3.33,.54-4.96,.96-.32,0-.62,.1-.93,.16-1.44,.25-2.76,.9-4.19,1.15-.89,.15-1.81,.11-2.66,.45-1.19-.01-2.35,.16-3.5,.44-.73-.27-1.46-.54-2.14,.12-.39,.06-.74,.34-1.16,.19-.07-.12-.14-.16-.22-.01-.12,.01-.25,.03-.37,.04,0-.35-.17-.57-.51-.55-.41,.03-.49,.34-.48,.69-.78,.54-1.68,.07-2.5,.28-.4,0-.57-.13-.61-.6-.07-.82,.46-1.33,.8-1.94,2.08-.14,4.17-.2,6.23-.46,1.06-.14,2.2-.18,3.13-.88,.51-.08,.89-.36,1.17-.8,.45-.11,.76-.45,1.12-.7,1.66-1.17,3.43-2.33,5.53-1.75,2.94,.81,5.91,.67,8.89,.72,.69,.01,1.3-.16,1.77-.57,1.09-.95,2.7-1.13,3.56-2.41,.03-.05,.09-.09,.13-.13,.63-.61,1.44-1.02,1.94-1.77,.48-.21,.88-.52,1.16-.98,.2-.15,.39-.29,.59-.44,.98-.27,1.36-.81,1.33-1.89,0-.27,0-.53-.01-.8,0-.38,0-.77,0-1.15-.04-.6-.06-1.21-.32-1.77-.36-1.84-.39-3.65,.38-5.4,.43-.32,.84-.67,1.29-.95,.54-.34,.63-.92,.37-1.31-.78-1.18-.88-2.47-.93-3.8,.07-.24,.19-.48,.2-.72,.14-2.48,.31-4.96-.02-7.44,.44-.87,.17-1.78,.15-2.67,0-.22-.29-.19-.47-.23-.06-1.91-.33-3.8-.79-5.65-.08-1.37-.77-2.51-1.41-3.66-.52-.94-.6-2.14-1.63-2.8-.11-.07-.09-.35-.13-.54,.15-.19,.3-.38,.45-.56,.82-.37,1.33-1.07,1.86-1.75,.19-.32,.43-.63,.55-.98,.25-.71-.29-1.1-.72-1.51-.34-.33-.77-.4-1.13-.11-.68,.56-1.32,1.19-1.97,1.79-.83,.36-1.48,1.09-2.43,1.19-1.51,.16-2.93,.66-4.35,1.18-2.47-.17-4.93-.43-7.41-.18-1.79-.37-3.62-.2-5.43-.33-1.93-.43-3.88-.59-5.86-.44-.66-.12-1.33-.05-2-.13-1.38-.17-2.62-.9-4.02-.9-.24-.28-.56-.36-.92-.38-1.36-.09-2.71-.38-4.06-.51-1.07-.11-2.11-.48-3.2-.4-.12,0-.25,0-.37,0h-.41c-2.03-.35-4.09-.28-6.13-.33-3.82-.09-7.61,.37-11.37,1.09-1.21,.07-2.38,.27-3.5,.74-.13,.02-.26,.04-.39,.06ZM86,50.94c.32,.03,.65,0,.94,.11,.27,.1,.42-.08,.4-.2-.07-.54-.57-.77-.95-.97-.27-.13-.68-.57-1.07-.1-.53,.65-1.19,1.03-2.06,.98-.16,0-.37,0-.32,.23,.04,.17,.14,.27,.41,.23,.88-.1,1.75-.39,2.66-.28Z"/>
      <path class="cls-2" d="M79.94,9.34c.04,.18,.02,.46,.13,.54,1.03,.66,1.11,1.85,1.63,2.8-.36,.21-.54,.5-.55,.94-.04,1.55-.3,3.12,.44,4.6,.49,.98,.39,2.21,1.24,3.05,.21,1.67,.42,3.33,.64,5-.3,.31-.21,.5,.17,.61-.05,1.67,.1,3.35-.16,5.02-.5,.71,.1,1.6-.38,2.32-.73,.17-1.42-.13-2.14-.2-.58-.59-2.39-.9-3.22-.55-.22,0-.45,.01-.67,.02-.06-.02-.12-.03-.18-.04-.04-.68,.14-1.4-.41-2.05-.34,.58-.1,1.14-.23,1.65-.16-.12-.33-.12-.5-.03,0-.58-.22-1.12-.25-1.7-.14-3.21-1.89-4.78-5.06-4.63-1.2,.06-2.3,.53-2.89,1.73-.19,.59-.58,.98-1.18,1.14-.24-.65-.28-1.33-.41-2-.19-.98-.24-2-1.31-2.65-1.19-.72-2.52-.98-3.74-1.55,.01-.99,.82-.71,1.36-.84,.55,0,1.14,.22,1.67-.2-.53-.48-1.1-.38-1.67-.28-.87-.11-1.71,.17-2.56,.24-1.22,.11-2.05,1.2-3.28,1.23-.23-.39-.55-.55-1.02-.53-.56,.02-1.13-.03-1.7-.04,.04-.62-.41-.5-.79-.55-1.6-.22-3.09,.46-4.66,.54,.02-.28-.03-.51-.38-.55-.67-.06-1.34-.18-2.01-.2-1.41-.03-2.82,0-4.23,0-.26-.14-.53-.2-.83-.21-1.54-.04-3.08-.1-4.62-.15-.05-.33-.31-.32-.57-.39-1.01-.27-2.06-.07-3.07-.25-2.59-.47-5.18-.97-7.83-.84-.38-.1-.72-.06-.95,.3-.14,0-.28,0-.42,.01-.61,.02-1.23,0-1.84,.07-.87,.1-1.7,.43-2,1.3-.31,.88,.41,1.4,1,1.91,.05,.04,.1,.08,.14,.14,.26,.45,.28,.67-.36,.87-1.36,.41-2.7,.89-3.96,1.55-.49-.18-1-.2-1.52-.2-2.44,.02-2.51-.06-2.53-2.47,0-.23,0-.45-.02-.68-.02-.28-.17-.61-.39-.62-.75-.04-.69-.7-.97-1.1-.09-.51-.18-1.02-.27-1.53,.03-2.45,.07-4.9,.07-7.36,0-.65,.15-1.19,.78-1.41,.63-.21,.73-.66,.75-1.2,.02-.42-.02-.84,.04-1.26,.08-.6,.42-.87,1.02-.58,.79,.38,1.53,.15,2.28-.11,.47,0,.95,.03,1.42,0,.51-.03,1.02-.13,1.1-.78,.93-.44,1.91-.59,2.93-.59,1.21,.16,2.34-.36,3.53-.43,2.43-.14,4.84-.64,7.29-.41,.12,.17,.25,.31,.48,.26,.41,.04,.82,.11,1.23,.13,1.8,.09,3.59,.44,5.4,.36,.04,.32,.3,.25,.51,.31,1.47,.47,3.05,.38,4.49,.95,1.91,.75,3.89,.69,5.88,.56,1.22,.24,2.42,.56,3.67,.63,.8,.51,1.74,.28,2.59,.51,1.58,.44,3.17,.82,4.76,1.24,2.07,.55,4.2,.54,6.31,.81,4.48,.56,8.74-.07,12.76-2.17Z"/>
      <path class="cls-4" d="M9.18,67.48c-.53-.65-1.34-.86-2.01-1.3-1.2-.77-2.38-1.54-3.18-2.78-.33-.51-.29-.84,.1-1.27,.57-.64,1.37-.97,1.97-1.55,.18-.17,.58-.21,.49-.51-.11-.36-.5-.15-.77-.19-.22-.03-.45,.01-.68-.01-1.69-.18-2.62-1.62-1.91-3.08,.33-.68,1.16-.86,1.83-.96,1.6-.24,3.03-.86,4.4-1.65,.53-.31,1.04-.7,.87-1.46,.14,0,.28-.02,.42-.03,.1,.59,.5,.56,.98,.55,1.41-.04,2.66-.91,4.09-.75,.65-.06,1.34,.27,1.95-.21,1.84-.17,3.31,.8,4.78,1.66,.48,.28,.81,.43,1.27,.11,.31,.06,.61,.12,.92,.19,.15,1.79-.13,3.59,.4,5.37,.68,2.28,.87,4.7,1.94,6.89,.72,1.48,1.61,2.85,2.67,4.09,1.5,1.74,3.31,2.89,5.73,2.71,.13,.04,.25,.07,.38,.11,.17,.19,.38,.15,.59,.09,1.23-.08,2.45-.16,3.68-.24,2.78,.41,5.18-.52,7.42-2.06,1.48-.79,2.09-2.27,2.78-3.66,.34-.68,.75-1.41,.36-2.23-.02-.35-.04-.68-.32-.96-.4-.4-.28-.79,.13-1.12,.23-.22,.52-.18,.8-.21,2.05-.23,4.15-.04,6.16-.62,.13,.02,.19-.04,.21-.16,.05-.03,.11-.05,.16-.07,.5-.04,1.01-.07,1.51-.14,2.04-.27,3.97-.97,5.93-1.58,.33,.07,.61-.05,.92-.14,.96-.28,1.93-.62,2.95-.21,.59,1.29,1.21,2.53,2.92,2.53,.84,0,1.69-.01,2.53,.04,.92,.06,1.86-.06,2.74,.32-.62,1.19,.47,2.07,.59,3.12,.05,.68-.19,1.21-.8,1.57-.62,.31-1.47-.01-1.94,.7-1.18,.19-2.12,1.01-3.28,1.26-.29-.02-.51,.08-.57,.38-.05,.25,.12,.33,.33,.37,.32,.14,.6,.42,.98,.38,.98-.11,1.85,.21,2.65,.74,.24,.16,.51,.25,.82,.27,1.28,.07,2.15,.8,2.77,1.86,.35,.59,.22,1.02-.41,1.34-.79,.41-1.63,.58-2.5,.71-2.09,.32-4.09,.97-6.27,1.01-4.29,.07-8.57,.43-12.72-1.03-.45-.16-.94-.19-1.43-.24-.72-.07-1.45-.17-2.16-.44-2.41-.93-4.84-1.29-7.35-.26-1.01,.41-2.03,.79-3.15,.93-2.55,.31-5.11,.16-7.66,.18-1.58,.01-3.15-.05-4.73-.32-1.37-.23-2.52-.98-3.86-1.22-3.8-.66-7.25-2.24-10.66-3.97-1.39-.71-2.77-1.68-4.5-1.29-.55-.09-.73-.59-.99-.96-.33-.48-.7-.7-1.27-.58Zm61.68,6.05c.54,.21,.97-.02,1.52-.31-.58-.22-1.05-.11-1.51-.1-.59,0-1.19,0-1.78,0-.31-.07-.62-.13-.92-.2-2.07-.48-4.18-.7-6.28-1-1.63-.23-3.23-.62-4.85-.94-.74-.57-.53-1.01,.2-1.37,.97-.27,1.89-.71,2.91-.81,.53,.01,1.07,.19,1.57-.12,1.02-.1,2.03-.34,3.04-.41,2.45-.19,4.66-1.13,6.9-2,.13-.05,.27-.21,.3-.34,.05-.22-.19-.2-.32-.26-.84-.39-1.67-.81-2.51-1.19-1.65-.75-3.37-.61-5.09-.34-.84,.19-1.76-.22-2.55,.4,.88,.12,1.75,.03,2.62-.18,1.83,.37,3.77,.4,5.39,1.61-.47,.53-.87,1.07-1.52,1.08-.9,.02-1.79,.16-2.68,.18-3.23,.07-6.38,.52-9.44,1.57-1.59,.07-2.88,.7-3.85,2.01-.28,.38-.22,.62,.18,.72,1.42,.34,2.77,1.01,4.28,.95,1.21,.08,2.44,.08,3.63,.27,3,.45,6,.79,9.04,.74,.57,.19,1.15,0,1.72,.04ZM10.31,57.17h-3.75c.42,.52,.7,.62,1.1,.47,.46-.17,.98-.19,1.41,.06,.45,.27,.85,.17,1.28,0,.71-.06,1.43-.11,2.14-.17,1.75,.01,3.49,.02,5.24,.03,.06,.5,1.2,.28,.74,1.12-.14,.07-.28,.18-.42,.2-1.94,.33-3.76,1.04-5.55,1.82-.78,.2-1.61,.06-2.38,.52-.62,.37-1.64,.48-1.65,1.24,0,.81,.94,1.18,1.65,1.54,2.23,1.05,4.74,1.18,6.99,2.17,2.23,.97,4.56,1.59,6.91,2.12-1.02-.54-2.06-1.04-3.13-1.39-2.48-.81-4.78-2.07-7.24-2.93-.18-.29-.18-.55-.02-.88,.34-.71,.66-1.43,1.2-2.02,.37-.41,.92-.64,1.38-.72,1.64-.3,3.12-1.01,4.66-1.59,.2-.04,.45,.05,.56-.22,.13-.02,.26-.03,.38-.05,.44-.06,.9-.23,.94-.68,.04-.5-.56-.69-.87-.75-1.37-.27-2.69-.91-4.14-.63-.27,0-.53-.01-.8-.02-1.44-.07-2.86,.07-4.26,.39-.79,.12-1.58,.25-2.36,.37Z"/>
      <path class="cls-5" d="M47.5,71.19c-2.24,1.54-4.64,2.47-7.42,2.06,.1-.79-.41-.88-1.01-.92-1.45-.11-2.93,.61-4.37-.13-.14-.07-.33-.03-.38,.17-.05,.19,.1,.27,.21,.38,.26,.25,.85-.03,.9,.55-2.43,.18-4.24-.97-5.73-2.71-1.06-1.24-1.95-2.6-2.67-4.09-1.07-2.19-1.26-4.61-1.94-6.89-.53-1.78-.25-3.58-.4-5.37,.02-.2,.05-.39,.07-.59,1.04,.3,1.11,.24,1.16-.8,.03-.57-.12-1.17,.13-1.72,.81-1.74,1.18-3.64,2.11-5.33,.03-.05-.05-.15-.08-.23-.4,0-.42,.53-.8,.51,.48-1.21,1.14-2.23,2.45-2.72,1.15-.43,1.18-.58,.64-1.34,.51-.42,1.11-.17,1.67-.21,.39-.03,.73-.03,.66-.56,.97-.23,1.78,.37,2.68,.53,2.71,.5,5.38,1.13,8.05,1.8,0,.79,.37,1.11,1.14,.83,.36-.13,.68-.08,.99,.1-.19,.3-.28,.58,.15,.75,.43,.17,.87,.32,1.31,.48,.08,.25,.31,.26,.52,.34,.53,.22,1.07,.46,1.12,1.16-.21,.12-.46,.32-.33,.52,.52,.82,.45,1.81,.84,2.64,.76,1.62,1.41,3.25,1.26,5.08-.03,.38-.09,.8,.44,.94-.21,.47-.39,.94-.21,1.46-.65,1.36-.69,1.38-2.29,1.08-1.02-.19-1.58,.26-1.64,1.31-.34,.61-.88,1.11-.8,1.94,.04,.47,.21,.6,.61,.6-.01,1.36,1.01,.7,1.54,.68,.79-.04,1.55-.39,2.37-.3-.41,.33-.53,.72-.13,1.12,.28,.28,.31,.61,.32,.96-.4,.04-.49,.36-.59,.66-.46,1.33-.95,2.63-2.01,3.64-.4,.38-.64,.96-.54,1.58Zm-16.75-20.84c-.66,.02-.76,.46-.73,.99-.4,.96-1.01,1.89-.26,2.97,.14,.2-.05,.42-.31,.59-.62,.41-.93,1-.83,1.8,.06,.54-.01,1.09-.03,1.64-.21,.01-.38,.08-.47,.28-.37,.83,.68,2.73,1.59,2.88,.44,.51,1.19,.7,1.48,1.37-.22,.71,.58,2.56,1.23,2.77,.15,.05,.36-.08,.54-.13,.23-.08,.46-.16,.69-.24,.15,.08,.26,.26,.47,.16,.29,.21,.71,.6,.82-.01,.05-.29-.2-.73,.21-.85,.43-.13,.49,.42,.71,.66,.14,.16,.28,.37,.31,.58,.09,.53,.55,.51,.88,.58,.33,.07,.5-.27,.67-.54,.33-.57,.41-1.29,1.02-1.68,.12,.18,.22,.5,.47,.18,.29-.36,.35-.78,.25-1.27-.14-.65-.48-1.19-.73-1.79,.54-.96-.22-1.92,0-2.89,.12-.51-.13-.64-.63-.65-.79-.02-1.58-.16-2.44-.26,.35-.4,.74-.43,1.14-.53,.64-.16,1.47-.29,1.32-1.26-.13-.84-.34-1.67-.76-2.43-.14-.25-.28-.44-.6-.31-.02-.09-.04-.18-.05-.27,.79-.35,.33-.75,.03-1.11-.17-.21-.48-.29-.51-.62,.3-.13,.63,.34,.88,0,.14-.2-.06-.43-.17-.62-1.03-1.77-3.88-2.47-5.59-1.37-.44,.28-.8,.64-.6,1.24,.04,.06,.03,.11-.01,.16Z"/>
      <path class="cls-1" d="M30.37,42.03c.54,.76,.51,.91-.64,1.34-1.31,.49-1.97,1.51-2.45,2.72-.08,.52-.55,.77-.8,1.17-.16,0-.32,0-.48-.01-1.1-.02-1.1-.03-.71-1.01,.03-.08,.01-.19,.01-.28,.44-.23,.53-.7,.72-1.08,.16-.31,.21-.7-.06-.99-.29-.31-.67-.18-.99-.08-.42,.13-.8,.35-1.21,.52-1.33,.56-2.66,1.11-3.73,2.13-.6,.47-1.57,.34-1.93,1.2h0c-1.18,.17-1.71,1.21-2.82,1.89h1.25c.34,.05,.73,0,1,.25,.76,.7,1.57,.49,2.37,.15,.31-.13,.61-.17,.92-.17,.46,.42,.92,.13,1.39,0,.26,.11,.34,.38,.5,.57,.22,.27,.79,.33,.59,.86-.2,.51-.68,.52-1.14,.53-.56-.17-1.01-.67-1.66-.58-1.24,.18-2.5-.13-3.75,.12-.46-.38-2.88-.7-3.27-.41-.27,.2-.38,.51-.45,.83-.2,.03-.35,.11-.37,.34-.53,.61-1.37,.27-1.97,.65-.14,0-.28,.02-.42,.03-.5-.12-1-.23-1.5-.35,.82-.74,1.59-1.62,2.66-1.92,.9-.25,1.61-.71,2.31-1.26,.8-.63,1.59-1.28,2.39-1.9,.2-.15,.55-.27,.37-.54-.16-.25-.44,0-.67,.09-1.06,.4-1.78,1.3-2.73,1.88-.73,.44-1.53,.62-2.25,1.08-2.14,1.36-4.22,2.83-6.53,3.91-.32,.15-.61,.34-.98,.34-.13-.89,.23-1.65,.61-2.4,.44-.89,.86-1.74,.1-2.7-.26-.33-.17-.93,.33-.87,1.91,.25,3.29-.97,4.87-1.62,.78,.52,1.48-.11,2.2-.21,1.03-.15,2.03-.52,2.78-1.33,.57-.39,1.14-.79,1.72-1.18,2.39-1.57,5.04-2.65,7.6-3.87,2.52-1.2,5.12-2.18,7.97-2.18,.85,0,1.72,.21,2.53-.22,.26,0,.52,0,.77-.01,.07,0,.14,0,.2,.01,1.88,.25,3.77,.44,5.67,.52,.35,.59,.89,.18,1.34,.26,.5,.09,1.02,.09,1.52,.17,.69,.1,1.42,.45,2.14,.06,.2,.07,.41,.14,.61,.21,.17,.94,1.11,1.07,1.71,1.52,.54,.41,.59,.83,.21,1.18-.9,.84-1.59,2-2.99,2.12-.61,.05-1.22,.05-1.83,.07-2.67-.67-5.34-1.3-8.05-1.8-.89-.16-1.7-.76-2.68-.53-.32-.04-.63-.09-.95-.11-1.8-.13-3.58-.18-5.26,.67-.62-.03-1.27-.17-1.79,.33-.48,.14-.97,.27-1.45,.42-2.13,.67-4.33,1.21-5.9,2.99-.17,.19-.63,.35-.35,.65,.29,.31,.53-.11,.8-.26,1.12-.63,2.06-1.51,3.26-2.05,1.26-.56,2.63-.74,3.86-1.33,.75,.06,1.49,.04,2.16-.36,1.1-.01,2.2,.03,3.28-.19Z"/>
      <path class="cls-5" d="M10.91,21.4c.28,.4,.22,1.06,.97,1.1,.22,.01,.37,.34,.39,.62,.01,.23,.02,.45,.02,.68,.01,2.41,.09,2.49,2.53,2.47,.52,0,1.03,.02,1.52,.2-.05,.36,.36,.46,.42,.75-.03,.4,.17,.62,.49,.85,.83,.59,1.53,1.37,1.75,2.36,.4,1.86,1.17,3.68,.87,5.66-.09,.58,.1,.95,.78,.85,.12,.37,0,.77,.06,1.11,.13,.86-.75,1.58-.28,2.45-.32,.2-.67,.34-1,.5-1.52,.73-2.9,1.8-4.66,1.93,0-1.67,.02-3.34,.02-5,.65,.04,.67-.42,.59-.84-.23-1.29-.61-2.56-.74-3.86-.09-.88-.53-1.43-1.14-1.92-.55-.43-1.03-.24-1.26,.43l-.36,.09c-1.89-.35-2.86,.16-3.44,2.44-.82,3.24-.99,6.53,.97,9.53,.46,.71,.03,.7-.46,.74-1.58-1.76-3.16-3.52-3.19-6.09,.15-.88,.18-1.76-.02-2.64,.03-2.56,1.42-4.53,2.82-6.48,.3-.41,.65-.78,.98-1.16,.15-.05,.36-.06,.43-.17,.73-1.02,1.69-.85,2.69-.57,.55,.16,1.1,.37,1.69,.35,.17,0,.35-.03,.33-.24,0-.09-.15-.23-.26-.25-1.15-.21-2.21-.79-3.46-.66-.86,.09-1.37,.42-1.6,1.22-.13-.02-.28-.1-.37-.06-.5,.22-1.02,.24-1.15-.33-.12-.51,.26-.97,.75-1.21,.37-.18,.77-.3,1.17-.39,.55-.12,.71-.4,.59-.93-.23-1.05-.43-2.1-.64-3.15,.07-1.26-.12-2.46-.92-3.49-.28-1-.16-2.06-.51-3.08-.34-.99-.07-2.09,.2-3.12,.34-1.29,.77-2.55,1.38-3.75,.47-.92,1.35-.9,2.07-.71,1.27,.34,2.44-.1,3.64-.23,0,.18,0,.36,0,.53-.75,.26-1.49,.48-2.28,.11-.6-.29-.94-.01-1.02,.58-.06,.41-.02,.84-.04,1.26-.03,.54-.13,.99-.75,1.2-.63,.21-.78,.76-.78,1.41,0,2.45-.04,4.9-.07,7.36-.45-.2-.5-.2-.49-.1,.08,.9-.27,1.87,.39,2.73,.35-.35,0-.83,.38-1.1Z"/>
      <path class="cls-5" d="M83.1,34.21c.49-.71-.11-1.61,.38-2.32,.47,.25-.14,1.02,.56,1.16,.05,1.33,.15,2.63,.93,3.8,.26,.39,.18,.97-.37,1.31-.45,.28-.86,.63-1.29,.95-.49-.59-.74,.2-1.13,.19-.09-.17-.16-.38-.39-.38-1.28-.02-2.56-.03-3.84-.02-.26,0-.12,.23-.1,.37-.42,.43-.39,.82,.1,1.17,.51,.37,1.06,.72,1.52,1.15,.66,.61,.85,.32,.9-.39,.88,.49,.82-.65,1.34-.77,.3,.2,.17,.52,.2,.79,.13,1.06,.26,2.13,.41,3.19,.09,.63,.37,.28,.61,.1,.26,.56,.28,1.17,.32,1.77-.27,.03-.39-.48-.64-.25-.22,.2-.12,.56-.04,.83,.09,.32,.3,.57,.69,.58,0,.27,0,.53,.01,.8-.6,.52-1.21,1.03-1.33,1.89-.2,.15-.39,.29-.59,.44-.26-.14-.53-.23-.83-.19-.38,.05-.53,.34-.66,.64-.14,.32,0,.49,.33,.53-.5,.75-1.31,1.16-1.94,1.77-.13-.72-.45-.7-.89-.23-.26,.27-.42,.68-.91,.59-.8-.14-1.27,.37-1.7,.89-.25,.3-.52,.73-.85,.74-1.26,.05-2.46,.43-3.7,.53-.19,.01-.41,.01-.48-.22-.07-.25,.12-.32,.3-.41,.43-.21,.83-.48,1.3-.64,.67-.22,1.09-.67,1.03-1.44,.11-.47,.68-.51,1.02-1.03h-2.72c-.04-.28,.15-.8-.38-.68-.6,.14-1.21-.18-1.78,.11,.26-.45,.53-.9,.79-1.35,.54,.36,.74,.03,1.02-.4,1.24-1.91,1.52-4.19,2.43-6.23,.76-1.71,1.48-3.34,3.06-4.44,.23-.16,.48-.35,.48-.69,.59-.18,1.18-.33,1.81-.33,.39-.06,.87,.26,1.15-.26,.83-.03,1.65-.05,2.48-.09,1.74-.09,1.89-.35,1.19-1.93,.85-.43,.09-1.06,.21-1.58Z"/>
      <path class="cls-5" d="M69.88,85.71c-2.73-.5-5.46-1-8.18-1.5-.58-.11-1.21,.23-1.75-.2-.01-.27,.05-.5,.31-.65,.42-.24,.53-.62,.46-1.08,1.03,0,2.11-.21,3.09,.02,2.3,.53,4.63,.53,6.95,.68,2.65,.17,5.26,.61,7.89,.81,1.24,.09,2.48,.02,3.63-.57,.22,.03,.47,.32,.6-.14,.25-.83-.48-3.11-1.19-3.63-.24,.18,.23,.51-.13,.66-.66-1.22-.85-2.59-1.12-3.92-.36-1.79-.97-3.54-.82-5.41,.51,.13,.98,.52,1.54,.2,1.09,2.26,1.6,4.72,2.32,7.1,.13,.42,.24,.85,.36,1.27-.85,.04-.65,.79-.47,1.05,.73,1.08,.75,2.37,1.21,3.52,.36,.9,.8,1.35,1.77,1.22,.47,.86,.41,1.04-.49,.98-.91-.06-1.78,.29-2.67,.21-3.4-.29-6.8-.24-10.21-.19-.2,0-.47,.1-.58-.19,.09-.36,.75-.03,.67-.49-.07-.38-.53-.25-.81-.37-.55-.22-1.14-.07-1.7-.13-.58-.05-.73,.24-.67,.75Z"/>
      <path class="cls-4" d="M14.79,37.94c0,1.67-.02,3.34-.02,5-.25,.52-.51,1.04-.76,1.56-1.28,.67-2.62,1.11-4.07,1.18,.14-.78-.81-.61-.97-1.12,.49-.04,.92-.03,.46-.74-1.96-3-1.79-6.29-.97-9.53,.58-2.28,1.54-2.79,3.44-2.44,.09,.18,.18,.32,.37,.08,.62,.21,1.5,.23,1.55,1.05,.12,1.7,1,3.24,.98,4.96Z"/>
      <path class="cls-5" d="M79.94,9.34c-4.02,2.1-8.27,2.73-12.76,2.17-2.1-.26-4.24-.26-6.31-.81-1.58-.42-3.18-.8-4.76-1.24-.85-.24-1.8,0-2.59-.51,.41-.23,.8-.45,.2-.91-.11-.09-.14-.27-.21-.41,1.97-.15,3.93,.01,5.86,.44-.03,.59,.4,.74,.85,.87,1.35,.38,2.73,.15,4.1,.21,.55,.02,.48-.39,.48-.74,2.48-.25,4.94,0,7.41,.18,.09,.51,.5,.62,.88,.53,1.51-.38,3.02-.78,4.51-1.24,.48-.15,.94-.44,1.33-.77,.24-.2,.82-.55,.06-.89,.65-.6,1.29-1.22,1.97-1.79,.36-.3,.79-.22,1.13,.11,.43,.41,.97,.8,.72,1.51-.12,.35-.37,.65-.56,.98-1.17-.22-2.21,.76-1.86,1.75-.15,.19-.3,.38-.45,.56Zm-14.09,1.55c.01-.09,.02-.18,.03-.27-.57-.43-1.24-.29-1.88-.23-.09,.01-.24,.16-.25,.25-.02,.2,.16,.25,.33,.25,.59,0,1.18,0,1.77,0Z"/>
      <path class="cls-5" d="M77.27,62.98c-.88-.38-1.82-.26-2.74-.32-.84-.06-1.68-.04-2.53-.04-1.71,0-2.34-1.24-2.92-2.53,.13-.02,.26-.01,.38-.06,1.91-.72,3.82-1.43,5.88-1.62,.5-.05,1-.2,1.49-.3,1.5-.3,2.88-1.4,4.53-.73,.02,.5-.07,1,.14,1.51,.18,.44,.04,.93-.22,1.37-.26,.45-.48,.93-.71,1.4-.54-.5-.6,.08-.78,.36-.34,.51-.24,1.29-.95,1.58-.08-.48-.34-.67-.82-.55-.25-.02-.5-.04-.75-.06Z"/>
      <path class="cls-5" d="M9.18,67.48c.57-.12,.94,.1,1.27,.58,.25,.37,.43,.88,.99,.96-.25,.35-.73,.51-.71,1.08,.07,1.42-.33,2.79-.71,4.12-.91,3.2-1.66,6.44-2.79,9.57,.13,.52-.27,.97-.18,1.48-.47,.08-.94,.19-1.42,.24-1.45,.15-1.57,0-1.02-1.32,.49-1.18,.97-2.35,1.27-3.6,1.02-4.17,2.07-8.33,3.11-12.49,.05-.21,.13-.42,.2-.63Z"/>
      <path class="cls-6" d="M7.04,85.28c-.09-.51,.31-.96,.18-1.48,2.74,0,5.49,.14,8.2-.25,2.91-.42,5.81-.78,8.75-.74,.1,0,.21,.02,.29,0,2.23-.89,4.61-.48,6.91-.73,2.61-.28,5.25-.24,7.87-.4,2.16-.14,4.33-.05,6.5-.06,.23,.59,.11,.9-.61,.84-.48-.04-.96,.04-1.34,.4-3.2,0-6.42-.15-9.61,.03-3.43,.19-6.87,.33-10.29,.57-3.32,.24-6.63,.57-9.92,1.1-2.29,.37-4.62,.49-6.93,.72Z"/>
      <path class="cls-6" d="M72.34,53.11c.07,.77-.36,1.22-1.03,1.44-.47,.16-.86,.43-1.3,.64-.18,.09-.37,.16-.3,.41,.07,.24,.29,.24,.48,.22,1.24-.1,2.44-.48,3.7-.53,.33-.01,.6-.44,.85-.74,.43-.52,.91-1.03,1.7-.89,.49,.09,.66-.32,.91-.59,.44-.46,.76-.49,.89,.23-.04,.04-.1,.08-.13,.13-.86,1.28-2.47,1.46-3.56,2.41-.47,.41-1.08,.58-1.77,.57-2.98-.06-5.95,.08-8.89-.72-2.1-.58-3.87,.58-5.53,1.75-.36,.25-.67,.59-1.12,.7-.34-.06-.46-.2-.21-.5,.13-.16,.42-.31,.26-.55-.16-.23-.47-.16-.71-.08-.29,.09-.5,.12-.55-.25,.98-.46,1.96-.92,2.93-1.39,1.03-.24,2.07-.48,3.1-.72,1.05,.27,2.09,.31,3.13-.05,1.21,.97,2.49,1.07,3.85,.32,1.09-.61,2.18-1.21,3.28-1.82Z"/>
      <path class="cls-6" d="M81.37,57.37c-1.65-.66-3.04,.43-4.53,.73-.49,.1-1,.25-1.49,.3-2.06,.2-3.97,.9-5.88,1.62-.12,.04-.25,.04-.38,.06-1.02-.42-1.99-.07-2.95,.21-.31,.09-.59,.21-.92,.14,0-.18-.01-.37-.02-.55,1.63-.42,3.21-1.11,4.96-.96,.25,.02,.49-.02,.75-.11,1.27-.46,2.56-.86,3.84-1.28,.25,.11,.4-.1,.58-.2,.07,0,.13,0,.2,.01,.96,.11,1.89,.08,2.72-.48,2.57-.65,5.17-1.15,7.95-2-.46,.94-.95,1.25-1.67,1.35-1.13,.15-2.24,.4-3.14,1.17Z"/>
      <path class="cls-6" d="M31.85,5.76c-2.45-.22-4.86,.27-7.29,.41-1.19,.07-2.32,.59-3.53,.43,0-.17,0-.35,0-.52,3.75-.72,7.54-1.18,11.37-1.09,2.04,.05,4.1-.02,6.13,.32,.02,.13,.04,.27,.2,.28,.16,0,.19-.14,.21-.27,.12,0,.25,0,.37,0,.07,.1,.11,.24,.21,.3,.19,.12,.6,0,.52,.4-.06,.29-.36,.33-.61,.39-.15,.04-.31,.07-.46,.1-1.81,.08-3.6-.27-5.4-.36-.41-.02-.82-.09-1.23-.13-.06-.28-.2-.4-.48-.26Z"/>
      <path class="cls-5" d="M38.97,6.51c.15-.03,.31-.07,.46-.1,.25-.06,.55-.11,.61-.39,.08-.41-.33-.28-.52-.4-.09-.06-.14-.19-.21-.3,1.09-.09,2.13,.29,3.2,.4,1.35,.14,2.7,.42,4.06,.51,.37,.02,.68,.1,.92,.38-.06,.55,.11,.8,.73,.8,.67,0,1.32,.2,1.63,.91-1.99,.13-3.97,.19-5.88-.56-1.44-.57-3.03-.48-4.49-.95-.2-.07-.47,0-.51-.31Z"/>
      <path class="cls-6" d="M60.72,82.27c.07,.45-.04,.84-.46,1.08-.27,.15-.32,.38-.31,.65-2.57-.59-5.18-.3-7.77-.43-.04-.21-.24-.26-.35-.38-.4-.46-1.17-.6-1.21-1.36,3.35,.47,6.75,.08,10.11,.44Z"/>
      <path class="cls-6" d="M84.04,33.06c-.7-.14-.09-.91-.56-1.16,.26-1.67,.12-3.35,.16-5.02,.05-.23,.09-.47-.17-.61-.21-1.67-.42-3.33-.63-5-.08-1.2-.13-2.41-.26-3.61-.06-.57-.17-1.1,.54-1.32,.46,1.86,.73,3.74,.79,5.65,.18,.36,.14,.74,.17,1.12,.05,.59-.18,1.21,.15,1.78,.33,2.48,.16,4.96,.02,7.44-.01,.24-.13,.48-.2,.72Z"/>
      <path class="cls-6" d="M46.72,60.3c.06-1.05,.62-1.5,1.64-1.31,1.6,.3,1.64,.28,2.29-1.08,.94-.03,1.88,.13,2.81-.04,.72,.31,1.34,.92,2.25,.57,.41-.15,.3,.29,.36,.5-.92,.7-2.07,.75-3.13,.88-2.06,.27-4.15,.32-6.23,.46Z"/>
      <path class="cls-6" d="M3.34,54.06c.37,0,.66-.19,.98-.34,2.31-1.08,4.39-2.56,6.53-3.91,.72-.46,1.53-.64,2.25-1.08,.95-.58,1.67-1.47,2.73-1.88,.24-.09,.51-.34,.67-.09,.18,.27-.17,.39-.37,.54-.81,.62-1.6,1.26-2.39,1.9-.7,.55-1.4,1.01-2.31,1.26-1.07,.3-1.84,1.18-2.66,1.92-1.37,.78-2.74,1.55-4.27,1.98-.4,.11-.95,.5-1.17-.28Z"/>
      <path class="cls-6" d="M78.85,63.59c.71-.29,.61-1.07,.95-1.58,.18-.28,.24-.85,.78-.36-.13,.51-.32,1.01-.4,1.53-.4,2.68,.27,5.23,.98,7.78-.56,.32-1.04-.07-1.54-.2-.18-.45-.17-.92-.24-1.39-.2-1.33-.11-2.71-.6-4,0-.53,.01-1.06,.02-1.59,.02-.06,.04-.13,.05-.19Z"/>
      <path class="cls-5" d="M50.61,81.83c.04,.77,.82,.9,1.21,1.36,.11,.12,.31,.18,.35,.38-1.24-.07-2.48-.16-3.72-.22-.38-.02-.77,.05-1.15,.07-.7-.32-1.41-.52-2.18-.3-.4-.3-.95,.14-1.32-.29,.38-.36,.86-.44,1.34-.4,.71,.06,.84-.24,.61-.84,1.64-.22,3.26-.07,4.87,.21Z"/>
      <path class="cls-5" d="M83.12,16.33c-.71,.23-.6,.75-.54,1.32,.13,1.2,.18,2.4,.26,3.61-.85-.84-.74-2.07-1.24-3.05-.74-1.48-.48-3.05-.44-4.6,.01-.44,.19-.73,.55-.94,.64,1.16,1.33,2.29,1.41,3.66Z"/>
      <path class="cls-6" d="M50.44,63.22c-.82-.09-1.59,.26-2.37,.3-.53,.03-1.55,.69-1.54-.68,.82-.21,1.71,.26,2.5-.28,.34,.03,.71,.23,1-.15,.12-.01,.25-.03,.37-.04,.07,0,.15,0,.22,.01,.42,.15,.77-.13,1.16-.19,.71-.02,1.44,.23,2.14-.12,1.15-.28,2.31-.45,3.5-.44,.06,.21,.4,.24,.36,.52-.05,.02-.11,.05-.16,.07-.07,.05-.14,.1-.21,.16-2.02,.58-4.11,.39-6.16,.62-.29,.03-.57-.01-.8,.21Z"/>
      <path class="cls-6" d="M49.85,8.33c-.31-.71-.96-.91-1.63-.91-.61,0-.79-.26-.73-.8,1.4,0,2.65,.73,4.02,.9,.67,.08,1.34,.01,2,.13,.07,.14,.1,.33,.21,.41,.6,.46,.21,.68-.2,.91-1.25-.07-2.46-.38-3.67-.63Z"/>
      <path class="cls-6" d="M78.98,6.22c.76,.34,.18,.69-.06,.89-.39,.32-.85,.62-1.33,.77-1.49,.46-3,.86-4.51,1.24-.37,.09-.79-.02-.88-.53,1.41-.52,2.83-1.02,4.35-1.18,.95-.1,1.6-.83,2.43-1.19Z"/>
      <path class="cls-5" d="M57.78,62.15c.04-.28-.3-.31-.36-.52,.86-.33,1.78-.29,2.66-.45,1.43-.25,2.75-.9,4.19-1.15,.31-.05,.61-.16,.93-.16,0,.18,.01,.37,.02,.55-1.95,.61-3.88,1.31-5.93,1.58-.5,.07-1.01,.09-1.51,.14Z"/>
      <path class="cls-6" d="M86.35,85.14c-.97,.13-1.41-.32-1.77-1.22-.46-1.15-.48-2.45-1.21-3.52-.18-.26-.38-1.02,.47-1.05,.44,1.23,.9,2.45,1.31,3.7,.26,.79,.69,1.46,1.2,2.1Z"/>
      <path class="cls-5" d="M56.08,58.95c-.07-.21,.04-.66-.36-.5-.91,.34-1.53-.26-2.25-.57,.58-.62,1.29-.94,2.15-.9,.08-.05,.15-.1,.23-.15,.07-.02,.14-.04,.21-.05,.05,.38,.26,.35,.55,.25,.24-.08,.55-.15,.71,.08,.16,.23-.13,.39-.26,.55-.25,.3-.13,.45,.21,.5-.28,.43-.66,.71-1.17,.8Z"/>
      <path class="cls-6" d="M64.8,8.41c0,.35,.07,.76-.48,.74-1.37-.05-2.75,.18-4.1-.21-.44-.13-.87-.28-.85-.87,1.81,.14,3.63-.04,5.43,.33Z"/>
      <path class="cls-6" d="M82.94,44.52c-.24,.18-.52,.53-.61-.1-.15-1.06-.27-2.13-.41-3.19-.03-.27,.09-.58-.2-.79,.12-.39,.51-.67,.47-1.13,.39,0,.64-.78,1.13-.19-.77,1.76-.74,3.57-.38,5.4Z"/>
      <path class="cls-2" d="M9.37,27.87c.24-.8,.74-1.13,1.6-1.22,1.25-.13,2.31,.45,3.46,.66,.1,.02,.25,.16,.26,.25,.02,.21-.16,.24-.33,.24-.59,.02-1.13-.19-1.69-.35-1-.29-1.96-.45-2.69,.57-.07,.1-.28,.11-.43,.17-.06-.1-.12-.21-.18-.31Z"/>
      <path class="cls-5" d="M9.93,45.68c1.45-.07,2.79-.52,4.07-1.18,.05,.16,.06,.34,.24,.43-.75,.82-1.75,1.18-2.78,1.33-.72,.11-1.42,.73-2.2,.21,.02-.44,.48-.51,.68-.8Z"/>
      <path class="cls-6" d="M86,50.94c-.91-.11-1.78,.18-2.66,.28-.27,.03-.37-.07-.41-.23-.05-.23,.16-.24,.32-.23,.87,.06,1.53-.33,2.06-.98,.39-.48,.8-.04,1.07,.1,.38,.19,.89,.43,.95,.97,.02,.13-.13,.3-.4,.2-.29-.1-.63-.08-.94-.11Z"/>
      <path class="cls-6" d="M69.88,85.71c-.06-.5,.09-.8,.67-.75,.57,.05,1.15-.09,1.7,.13,.28,.11,.75-.01,.81,.37,.08,.46-.58,.13-.67,.49-.85,.06-1.68-.11-2.52-.24Z"/>
      <path class="cls-6" d="M15.59,7.96c0-.18,0-.36,0-.53,.45-.18,.91-.35,1.36-.53,.08,.11,.14,.07,.19-.03,.13-.02,.26-.04,.39-.06,.19,.12,.38,.24,.57,.37-.09,.65-.59,.75-1.1,.78-.47,.03-.94,0-1.42,0Z"/>
      <path class="cls-6" d="M80.39,8.78c-.35-.99,.69-1.97,1.86-1.75-.53,.68-1.03,1.38-1.86,1.75Z"/>
      <path class="cls-5" d="M18.11,7.19c-.19-.12-.38-.24-.57-.37,1.12-.47,2.3-.67,3.5-.74,0,.17,0,.35,0,.52-1.02,0-2,.14-2.93,.59Z"/>
      <path class="cls-2" d="M8.79,18.31c.8,1.03,.99,2.23,.92,3.49-.58-1.09-.75-2.29-.92-3.49Z"/>
      <path class="cls-6" d="M81.94,50.12c.12-.86,.73-1.37,1.33-1.89,.03,1.08-.35,1.61-1.33,1.89Z"/>
      <path class="cls-6" d="M80.19,51.54c-.32-.04-.47-.2-.33-.53,.13-.3,.28-.58,.66-.64,.31-.04,.57,.05,.83,.19-.28,.46-.68,.77-1.16,.98Z"/>
      <path class="cls-1" d="M78.24,56.85c-.84,.57-1.77,.6-2.72,.48,.85-.46,1.74-.73,2.72-.48Z"/>
      <path class="cls-1" d="M84.23,24.89c-.33-.57-.1-1.19-.15-1.78-.03-.38,0-.77-.17-1.12,.18,.04,.47,.01,.47,.23,.02,.89,.29,1.81-.15,2.67Z"/>
      <path class="cls-2" d="M5.75,35.82c.2,.88,.17,1.76,.02,2.64-.47-.88-.47-1.76-.02-2.64Z"/>
      <path class="cls-4" d="M45.11,83.13c.77-.22,1.49-.02,2.18,.3-.8,.43-1.5,.13-2.18-.3Z"/>
      <path class="cls-6" d="M83.26,47.44c-.38,0-.59-.25-.69-.58-.08-.27-.18-.63,.04-.83,.26-.22,.37,.29,.64,.25,0,.38,0,.77,0,1.15Z"/>
      <path class="cls-1" d="M53.91,62.07c-.7,.35-1.42,.1-2.14,.12,.68-.65,1.41-.39,2.14-.12Z"/>
      <path class="cls-4" d="M50.02,62.4c-.28,.38-.65,.18-1,.15,0-.35,.07-.67,.48-.69,.35-.02,.52,.2,.51,.55Z"/>
      <path class="cls-1" d="M75.31,57.32c-.18,.11-.32,.31-.58,.2,.08-.39,.27-.46,.58-.2Z"/>
      <path class="cls-5" d="M38.94,5.31c-.02,.13-.05,.27-.21,.27-.16,0-.18-.15-.2-.28,.14,0,.27,0,.41,0Z"/>
      <path class="cls-5" d="M17.14,6.88c-.05,.1-.11,.13-.19,.03,.06,0,.13-.02,.19-.03Z"/>
      <path class="cls-4" d="M50.62,62.37c-.07,0-.15,0-.22-.01,.08-.14,.15-.1,.22,.01Z"/>
      <path class="cls-1" d="M16.76,27.23c-.06-.29-.47-.4-.42-.75,1.26-.66,2.6-1.15,3.96-1.55,.64-.19,.63-.42,.36-.87-.03-.05-.09-.1-.14-.14-.59-.51-1.31-1.03-1-1.91,.3-.86,1.13-1.2,2-1.3,.61-.07,1.22-.05,1.84-.07,.02,.22,.13,.35,.35,.38-.04,.44,.21,.91,.54,.89,.65-.03,1.24,.35,1.88,.18,.02,.2,.17,.26,.34,.26,1.76,.01,3.53-.03,5.28,.18,1.27,.06,2.53,.13,3.8,.19,0,0,0,0-.01,0,1.13-.21,2.27,0,3.4-.09,.35,.46,.68,.5,.98-.05,.19-.02,.38-.03,.58-.05,.1,.07,.21,.2,.31,.19,.95-.07,1.77,.05,2.14,1.13,.1,.29,.44,.37,.68,.02,.25,0,.49,0,.74,0,2.38,.12,4.67-.44,6.96-.99,.68-.17,1.35-.35,2.02,.05-.07,.46-.13,.92-.2,1.38-.7,.2-1.42,.37-2.11,.59-.5,.17-1.14,.35-1,1.05,.13,.65,.62,1.01,1.34,.88,.16,.74,.52,1.25,1.38,1.18,.23-.02,.36,.12,.39,.34-1.03-.09-2.06,.12-3.06,.27-1.03,.15-2.23,.55-2.85,1.37-1.27,1.67-2.27,3.55-2.06,5.8,.12,.78,.24,1.57,.36,2.35-1.14,.23-2.17-.42-3.29-.4-.2-.36-.53-.13-.8-.16-.2-.24-.51-.16-.76-.26-.79-.91-1.76-.59-2.7-.4-1.58,0-3.16,.08-4.73,0-1.42-.07-2.8,.46-4.22,.25-.07-.79,.81-1.06,.94-1.74,.41,0,.78-.13,.93-.53,.04-.1-.23-.43-.39-.45-.71-.12-1.44-.26-2.16-.23-.62,.03-.71,.73-1.01,1.15-.24,.33,.02,.51,.33,.62,0,.29-.17,.35-.42,.4-1.02,.21-1.25,.64-.93,1.68-1.96,.81-3.92,1.62-5.88,2.44-.47-.87,.41-1.59,.28-2.45-.05-.34,.06-.74-.06-1.11,.29-2.08-.17-4.04-.71-6.04-.49-1.84-1.47-3.01-3.18-3.68Zm8.74,8.92c.7-.63,.48-1.5-.57-1.94-.12-.53-1.05-.6-.78-1.36,.5-.44,1.1-.53,1.75-.58,2.06-.15,4.09,.2,6.11,.44,1.17,.14,2.34,.04,3.52,.3,1.23,.27,2.48,.64,3.78,.35,1.53,.04,3.06,.3,4.58-.1-1.52-.24-3.06-.1-4.57-.32-1.48-.18-2.93-.56-4.39-.85-2.18-.44-4.41-.33-6.6-.63-1.03-.14-2.07,.03-3.06-.23-1.21-.32-1.78-.03-1.9,1.23-.02,.25,.02,.51,.03,.77-.07,.2-.13,.4-.2,.6-.8,.88-1.21,1.94-1.38,3.09-.07,.47-.52,1.25,.04,1.37,.65,.14,.67-.77,.86-1.28,.34-.91,.2-1.99,.89-2.79,.39-.09,.74,.12,1.11,.18,.07,.47,.48,.87,.35,1.39-.25,.26-.1,.6-.15,.9-.03,.2-.33,.52,.13,.58,.3,.04,.44-.21,.46-.49,.02-.22,0-.44,0-.66Zm16.8-.34c-.36-1.03-1.16-1.46-2.18-1.56-.2-.02-.48-.08-.56,.22-.08,.26,.1,.52,.29,.55,.86,.15,1.33,.98,2.17,1.14,.23,0,.48,.02,.29-.34Zm-22.62-8.36c.05,.09,.1,.11,.17,.02,.39-.01,.78-.02,1.16-.04,2.59-.19,5.13,.31,7.67,.61,1.2,.14,2.39,0,3.56,.18,3.04,.48,6.12,.56,9.18,.76,.7,.05,1.4,0,2.11,.15,.55,.11,1.22,.24,1.83-.25-1.3-.42-2.55-.55-3.77-.66-3.13-.28-6.28-.34-9.42-.63-1.39-.13-2.79-.31-4.18-.5-2.25-.3-4.48-.83-6.77-.66-.68,.05-1.27,.32-1.55,1.01Zm14,7.48c.39,.32,.73,.52,1.19,.48,.25-.02,.57,.03,.67-.25,.1-.3-.13-.53-.35-.72-.72-.59-1.07,0-1.5,.49Z"/>
      <path class="cls-1" d="M65.22,54.61c-1.04,.36-2.08,.32-3.13,.05,.26-.52-.01-1.04-.02-1.56,.43-.48,.18-.93-.1-1.35-.23-.34-.54-.2-.83-.04-.34-.23-.18-.6-.24-.91,.2-.11,.24-.28,.17-.48-.11,.08-.22,.16-.34,.24-.14-.07-.27-.14-.41-.21-.03-.23-.26-.15-.38-.23,.11-.5,.58-.99,0-1.5,1.47-.52,2.95-.95,4.53-.78,.56,.06,.91-.18,.9-.7-.02-.97,.34-1.9,.22-2.87-.12-.93,.41-1.72,.57-2.59,.05-.26,.27-.34,.41-.32,.81,.14,1.77-.15,2.29,.81,.39,.72,.23,2.16-.34,2.78-.33,.36-.68,.69-1.02,1.04-.37,.37-.12,.57,.23,.69,.75,.24,1.38-.24,1.56-1.13,.16-.81,.35-1.6,.52-2.41,.12-.6,.16-1.13-.43-1.61-.62-.51-1.29-.78-2.06-.87-.82-.1-1.24-.48-1.19-1.37,.06-1.03,.04-2.06,.05-3.1,.47,.01,.99-.09,1.13,.58-.12,.93,.47,1.34,1.22,1.56,2.24,.67,5.46-.29,6.61-2.53,.48,0,.98,.05,1.41-.24,.17-.12,.57-.22,.38-.44-.55-.62,.05-1.08,.12-1.61,.22,0,.45-.01,.67-.02,.57,.63,1.32,.57,2.07,.54,.68,.71,1.72,.66,2.48,1.21,.07,.06,.14,.13,.21,.19,.13,.13,.26,.26,.39,.38,.7,1.58,.55,1.84-1.19,1.93-.83,.04-1.65,.06-2.48,.09-.4,0-.88-.31-1.15,.26-.62,0-1.22,.15-1.81,.33-1.21,.17-2.17,.76-2.77,1.82-1.33,2.34-2.37,4.81-3.04,7.43-.22,.06-.22,.22-.17,.4-.14,.32-.29,.63-.43,.95-.11,.03-.18,.08-.15,.21-.15,.32-.3,.64-.45,.96-.26,.45-.53,.9-.79,1.35-.56,.6-1.54,.79-1.72,1.77-.59,.35-1.53,.31-1.54,1.32Z"/>
      <path class="cls-3" d="M67.33,36.75c-.14-.66-.66-.56-1.13-.58,0-1.97-.01-3.93-.03-5.9,0-.27,.1-.49,.21-.72,.6-.17,.99-.55,1.18-1.14,.98-.51,1.94-1.08,3.08-1.15,.3,.48,.13,.88-.2,1.26-1.28,.36-2.4,1.03-2.75,2.35-.41,1.58-.69,3.23,.63,4.62,.21,.22,.36,.52,.82,.43-.18-.48-.35-.86-.61-1.23-.96-1.34-.82-2.99,.29-4.17,.61-.65,1.36-1.17,1.84-1.95,.78-.1,1.44-.51,2.15-.79,1.18,.36,1.6,1.3,1.92,2.38,.31,1.06,.02,2.08,0,3.11-.05,2.25-1.75,3.86-3.97,4.05-1.22,.1-2.28-.38-3.41-.59Zm2.7-2.78c.34,.38,.59,.69,.88,.97,.12,.12,.3,.11,.43-.02,.11-.11,.04-.24-.05-.33-.31-.36-.48-.96-1.26-.61Z"/>
      <path class="cls-6" d="M66.38,29.56c-.11,.23-.21,.44-.21,.72,.02,1.97,.02,3.93,.03,5.9-.01,1.03,.01,2.07-.05,3.1-.05,.89,.36,1.27,1.19,1.37,.76,.09,1.44,.36,2.06,.87,.58,.48,.55,1.01,.43,1.61-.16,.8-.36,1.6-.52,2.41-.18,.9-.81,1.38-1.56,1.13-.35-.11-.6-.31-.23-.69,.34-.34,.69-.68,1.02-1.04,.57-.62,.74-2.06,.34-2.78-.52-.96-1.49-.67-2.29-.81-.13-.02-.36,.06-.41,.32-.16,.87-.69,1.65-.57,2.59,.12,.97-.23,1.9-.22,2.87,0,.53-.35,.76-.9,.7-1.58-.16-3.07,.26-4.53,.79-.06,0-.13,0-.19,.02-2.08,.45-4.17,.82-6.31,.42-.34-.06-.58,.09-.39,.51,.15,.33,.36,.6,.69,.77,0,.41,.27,.62,.59,.79,.07,.19,.14,.38,.22,.57-.04,.14,.01,.18,.15,.16,1.47,.28,2.31,1.42,3.29,2.37-1.47,.11-2.4-1-3.36-1.75-1.13-.87-1.91-2.19-2.85-3.32,.13-.76-.71-.99-.86-1.64-.19-.84-.61-1.62-.92-2.43-.07-.71-.15-1.42-.22-2.13-.04-.64,.35-.66,.82-.57,.02,.38,.04,.76,.06,1.14,.55,1.41,.91,2.9,1.74,4.19,.21,.33,.47,.62,.94,.45,1.85,.86,3.69,.24,5.49-.15,1.26-.27,2.47-.86,3.68-1.3,1.08-.39,1.81-.77,2.14-1.89,.31-1.08,.6-2.14,.16-3.24,.36,.11,.54-.03,.57-.39-.05-2.28,0-4.54,.38-6.8,.16-.96,.54-2,.17-2.93-.51-1.26-.76-2.52-.72-3.86,.06-.71-.13-1.22-.97-1.17-.61-1.33-1.69-1.99-3.1-2.17,0-.33-.56-.53-.2-.94h0c1.22,.58,2.56,.84,3.74,1.56,1.08,.66,1.13,1.67,1.31,2.65,.13,.67,.17,1.35,.41,2Z"/>
      <path class="cls-6" d="M67.33,36.75c1.13,.22,2.19,.7,3.41,.59,2.21-.19,3.91-1.81,3.97-4.05,.02-1.04,.32-2.05,0-3.11-.32-1.09-.73-2.02-1.92-2.38-.53-.97-1.41-.51-2.17-.52-1.14,.07-2.1,.64-3.08,1.15,.59-1.2,1.7-1.67,2.89-1.73,3.17-.16,4.92,1.41,5.06,4.63,.03,.59,.26,1.12,.25,1.7-.42,.87-.1,1.9-.58,2.76-1.16,2.25-4.37,3.21-6.61,2.53-.75-.23-1.34-.63-1.22-1.56Z"/>
      <path class="cls-6" d="M51.37,26.83c-.72,.13-1.21-.23-1.34-.88-.14-.7,.5-.88,1-1.05,.69-.23,1.41-.4,2.11-.59,.58-.13,1.16-.32,1.77-.22,.63,.1,1.12-.12,1.52-.59,1.23-.03,2.06-1.12,3.28-1.23,.85-.08,1.69-.36,2.56-.25,0,.16,0,.32,0,.48-.54,.13-1.35-.15-1.36,.84,0,0,0-.01,0-.01-.46,.1-1.07-.34-1.36,.37-.78,.03-1.61-.09-2.08,.79-.06,.11-.26,.15-.41,.2-1.09,.4-2.23,.44-3.38,.43-1.21,0-2.04,.65-2.32,1.69Z"/>
      <path class="cls-5" d="M31.75,22.54c-1.75-.21-3.52-.17-5.28-.18-.17,0-.31-.06-.34-.26,.35-.3,.88,.09,1.28-.33-.87-.58-2.38,.06-2.69-1.43,2.66-.13,5.24,.37,7.83,.84,1,.18,2.06-.03,3.07,.25,.26,.07,.51,.06,.57,.39-.32,.27-.66,.15-.99,.05-1.31-.37-2.66-.27-4-.27-.23,0-.5,.05-.53,.31-.03,.34,.3,.25,.49,.27,.27,.02,.52,.03,.58,.37Z"/>
      <path class="cls-6" d="M31.75,22.54c-.05-.34-.31-.35-.58-.37-.2-.02-.52,.07-.49-.27,.02-.26,.29-.31,.53-.31,1.34,0,2.69-.1,4,.27,.34,.1,.68,.22,.99-.05,1.54,.05,3.08,.11,4.62,.15,.3,0,.57,.07,.83,.21-.29,.44-.88-.07-1.17,.36-.19,.02-.38,.03-.58,.05-.33-.06-.66-.1-.98,.05-1.13,.08-2.27-.13-3.4,.09,0,0,.01,0,.01,0-1.27-.06-2.53-.13-3.8-.19Z"/>
      <path class="cls-4" d="M40.48,22.54c.29-.44,.88,.08,1.17-.36,1.41,0,2.82-.03,4.23,0,.67,.01,1.34,.13,2.01,.2,.35,.03,.4,.27,.38,.55-1.02,.1-2.04,.21-3.07,.31-.49-.15-.92,.16-1.4,.16-.3,0-.32,.25-.19,.49-.24,.34-.58,.27-.68-.02-.37-1.08-1.19-1.2-2.14-1.13-.1,0-.21-.12-.31-.19Z"/>
      <path class="cls-5" d="M45.2,23.23c1.02-.1,2.04-.21,3.07-.31,1.56-.08,3.05-.76,4.66-.54,.37,.05,.83-.06,.79,.55-.13,0-.25,0-.38,0-.66-.39-1.34-.21-2.02-.05-2.29,.56-4.57,1.11-6.96,.99,.05-.52,.73-.21,.85-.65Z"/>
      <path class="cls-4" d="M75.17,35.78c.48-.86,.16-1.89,.58-2.76,.17-.09,.34-.09,.5,.03,.16,.22,.31,.46,.64,.39,.06,0,.12,.02,.18,.04-.07,.53-.67,.99-.12,1.61,.19,.22-.21,.33-.38,.44-.43,.3-.92,.25-1.41,.24Z"/>
      <path class="cls-3" d="M53.33,22.94c.13,0,.25,0,.38,0,.57,.02,1.13,.07,1.7,.04,.46-.02,.79,.14,1.02,.53-.4,.47-.89,.69-1.52,.59-.61-.1-1.19,.09-1.77,.22,.07-.46,.13-.92,.2-1.38Z"/>
      <path class="cls-6" d="M24.72,20.33c.31,1.49,1.81,.85,2.69,1.43-.4,.42-.93,.03-1.28,.33-.64,.17-1.23-.21-1.88-.18-.33,.02-.58-.45-.54-.89,.02-.13,.04-.26,.06-.39,.23-.36,.57-.4,.95-.3Z"/>
      <path class="cls-6" d="M82.89,35.79c-.13-.13-.26-.26-.39-.38-.07-.06-.14-.13-.21-.19-.76-.55-1.8-.5-2.48-1.21,.39-.44,.77,.08,1.15,0,.71,.06,1.4,.37,2.14,.2-.11,.52,.64,1.16-.21,1.58Z"/>
      <path class="cls-6" d="M10.91,21.4c-.37,.26-.03,.75-.38,1.1-.65-.85-.3-1.83-.39-2.73,0-.1,.04-.1,.49,.1,.09,.51,.18,1.02,.27,1.53Z"/>
      <path class="cls-5" d="M80.96,34.02c-.38,.07-.76-.45-1.15,0-.74,.02-1.5,.09-2.07-.54,.83-.35,2.64-.04,3.22,.55Z"/>
      <path class="cls-5" d="M76.89,33.44c-.33,.07-.48-.17-.64-.39,.13-.51-.11-1.07,.23-1.65,.55,.65,.37,1.37,.41,2.05Z"/>
      <path class="cls-5" d="M62.27,22.52c0-.16,0-.32,0-.48,.57-.1,1.15-.2,1.67,.28-.54,.42-1.12,.2-1.67,.2Z"/>
      <path class="cls-5" d="M83.47,26.26c.26,.15,.22,.38,.17,.61-.38-.12-.48-.31-.17-.61Z"/>
      <path class="cls-4" d="M23.77,20.63c-.02,.13-.04,.26-.06,.39-.22-.03-.33-.16-.35-.38,.14,0,.28,0,.42-.01Z"/>
      <path class="cls-5" d="M31.85,5.76c.28-.14,.43-.02,.48,.26-.24,.05-.36-.09-.48-.26Z"/>
      <path class="cls-3" d="M50.61,81.83c-1.61-.28-3.23-.43-4.87-.21-2.17,.01-4.34-.08-6.5,.06-2.62,.17-5.26,.12-7.87,.4-2.3,.25-4.68-.16-6.91,.73-.08,.03-.19,.01-.29,0-2.94-.04-5.84,.32-8.75,.74-2.71,.39-5.47,.25-8.2,.25,1.14-3.13,1.89-6.38,2.79-9.57,.38-1.34,.77-2.7,.71-4.12-.03-.57,.45-.73,.71-1.08,1.73-.39,3.11,.58,4.5,1.29,3.41,1.73,6.86,3.31,10.66,3.97,1.34,.23,2.49,.98,3.86,1.22,1.58,.27,3.15,.33,4.73,.32,2.55-.02,5.11,.14,7.66-.18,1.12-.14,2.14-.52,3.15-.93,2.51-1.03,4.94-.67,7.35,.26,.71,.27,1.43,.37,2.16,.44,.49,.05,.97,.08,1.43,.24,4.16,1.46,8.43,1.1,12.72,1.03,2.18-.04,4.18-.68,6.27-1.01,.87-.14,1.71-.3,2.5-.71,.63-.33,.75-.75,.41-1.34-.63-1.06-1.49-1.79-2.77-1.86-.31-.02-.57-.11-.82-.27-.81-.53-1.67-.85-2.65-.74-.39,.04-.66-.23-.98-.38,.08-.25,.16-.5,.25-.75,1.16-.25,2.1-1.07,3.28-1.26,.66-.2,1.51,.14,1.94-.7,.6-.35,.84-.89,.8-1.57,.24-.32,.52-.61,.92-.73,.49,1.29,.4,2.67,.6,4,.07,.47,.06,.94,.24,1.39-.15,1.87,.46,3.62,.82,5.41,.27,1.33,.46,2.7,1.12,3.92,.04,1.08,.93,1.97,.72,3.11-1.15,.59-2.39,.66-3.63,.57-2.64-.2-5.25-.64-7.89-.81-2.31-.15-4.65-.15-6.95-.68-.98-.23-2.06-.02-3.09-.02-3.36-.37-6.75,.02-10.11-.44Z"/>
      <path class="cls-6" d="M64.02,64.14c1.72-.27,3.44-.4,5.09,.34,.85,.38,1.67,.8,2.51,1.19,.14,.06,.37,.05,.32,.26-.03,.13-.17,.29-.3,.34-2.24,.86-4.45,1.81-6.9,2-1.01,.08-2.02,.31-3.04,.41-.55-.34-1.09-.46-1.57,.12-1.02,.1-1.94,.54-2.91,.81-.37-.41-1.27,.05-1.38-.81,3.06-1.05,6.21-1.5,9.44-1.57,.89-.02,1.78-.16,2.68-.18,.65-.01,1.05-.55,1.52-1.08-1.62-1.21-3.56-1.24-5.39-1.61-.02-.07-.05-.15-.07-.22Z"/>
      <path class="cls-6" d="M10.7,52.69c.6-.38,1.44-.05,1.97-.65,.12,.02,.24,.03,.36,.05,.17,.04,.34,.05,.42-.15,.16-.04,.32-.09,.49-.13,.21,.11,.38,.08,.49-.14,.1-.01,.19-.02,.29-.03,.2,.09,.37,.07,.49-.14,.49-.26,1.03-.15,1.55-.2,1.24-.25,2.5,.06,3.75-.12,.65-.09,1.1,.41,1.66,.58,.41,.38,.82,.76,1.23,1.14-.03,.44,.44,.72,.38,1.17-.46,.32-.78,.17-1.27-.11-1.47-.86-2.94-1.84-4.78-1.66-.67-.16-1.36-.44-1.95,.21-1.44-.16-2.69,.71-4.09,.75-.48,.01-.88,.04-.98-.55Z"/>
      <path class="cls-5" d="M14.82,61.06c-.54,.59-.86,1.31-1.2,2.02-.16,.34-.16,.59,.02,.88-.72,.53-1.31-.13-1.97-.22-.55-.08-1.16-.56-1.56,.26-.71-.36-1.65-.73-1.65-1.54,0-.76,1.03-.87,1.65-1.24,.76-.46,1.59-.32,2.38-.52,.07,.43,.4,.34,.68,.34,.55,0,1.1,0,1.65,0Z"/>
      <path class="cls-6" d="M57.03,70.98c1.62,.32,3.22,.7,4.85,.94,2.1,.3,4.21,.52,6.28,1,.31,.07,.62,.14,.92,.2,.02,.12,.03,.25,.05,.37-3.04,.05-6.04-.29-9.04-.74-1.2-.18-2.42-.18-3.63-.27-.04-.21-.15-.33-.37-.36-.19-.03-.52,.08-.51-.24,0-.26,.28-.29,.5-.32,.39-.06,.67-.32,.94-.57Z"/>
      <path class="cls-5" d="M57.03,70.98c-.28,.25-.55,.51-.94,.57-.22,.04-.5,.07-.5,.32,0,.33,.32,.22,.51,.24,.22,.03,.33,.15,.37,.36-1.51,.06-2.86-.61-4.28-.95-.4-.09-.46-.34-.18-.72,.96-1.3,2.25-1.93,3.85-2.01,.11,.86,1,.39,1.38,.81-.73,.36-.94,.79-.2,1.37Z"/>
      <path class="cls-6" d="M10.11,64c.4-.82,1.01-.34,1.56-.26,.65,.09,1.24,.75,1.97,.22,2.46,.86,4.76,2.12,7.24,2.93,1.08,.35,2.11,.85,3.13,1.39-2.35-.53-4.69-1.14-6.91-2.12-2.25-.98-4.76-1.12-6.99-2.17Z"/>
      <path class="cls-6" d="M17.74,56.42c1.45-.28,2.77,.37,4.14,.63,.31,.06,.92,.24,.87,.75-.04,.46-.5,.62-.94,.68-.13,.02-.26,.03-.38,.05,.12-.64-.29-.88-.79-.95-.45-.06-.87-.16-1.26-.39-.66-.39-1.22-.28-1.64,.37-1.75-.01-3.49-.02-5.24-.03,.06-.24,.13-.49,.19-.73,1.4-.33,2.82-.47,4.26-.39,.26,.5,.52,.51,.8,.02Z"/>
      <path class="cls-6" d="M14.82,61.06c-.55,0-1.1,0-1.65,0-.28,0-.61,.08-.68-.34,1.79-.78,3.61-1.5,5.55-1.82,.15-.02,.28-.13,.42-.2,.36,.04,.67-.04,1.02-.2,.47-.22,1.04-.45,1.38,.27-1.53,.58-3.02,1.29-4.66,1.59-.46,.09-1.01,.31-1.38,.72Z"/>
      <path class="cls-6" d="M47.5,71.19c-.1-.62,.14-1.2,.54-1.58,1.06-1.02,1.55-2.31,2.01-3.64,.1-.3,.19-.63,.59-.66,.39,.83-.03,1.55-.36,2.23-.69,1.39-1.29,2.86-2.78,3.66Z"/>
      <path class="cls-6" d="M35.43,73.3c-.05-.58-.64-.3-.9-.55-.12-.11-.27-.19-.21-.38,.06-.2,.24-.24,.38-.17,1.44,.75,2.91,.02,4.37,.13,.61,.05,1.11,.13,1.01,.92-1.23,.08-2.45,.16-3.68,.24-.13-.48-.33-.5-.59-.09-.13-.04-.25-.07-.38-.11Z"/>
      <path class="cls-5" d="M20.86,58.75c-.33-.71-.91-.49-1.38-.27-.34,.16-.66,.24-1.02,.2,.46-.84-.68-.63-.74-1.12,.43-.65,.98-.76,1.64-.37,.39,.23,.81,.33,1.26,.39,.5,.07,.91,.31,.79,.95-.11,.27-.36,.18-.56,.22Z"/>
      <path class="cls-1" d="M78.78,65.37c-.4,.13-.67,.41-.92,.73-.12-1.05-1.21-1.93-.59-3.12,.25,.02,.5,.04,.75,.06,.09,.42,.34,.67,.77,.74,0,.53-.01,1.06-.02,1.59Z"/>
      <path class="cls-1" d="M23.77,54.06c.06-.45-.41-.73-.38-1.17,.46-.94,.91-.55,1.36,.01,0,.25,0,.51,0,.76-.02,.2-.05,.39-.07,.59-.31-.06-.61-.12-.92-.19Z"/>
      <path class="cls-2" d="M10.35,57.7c-.42,.18-.82,.28-1.28,0-.43-.26-.94-.23-1.41-.06-.4,.15-.68,.05-1.1-.47,1.36,0,2.56,0,3.75,0,.01,.18,.02,.35,.03,.53Z"/>
      <path class="cls-5" d="M10.35,57.7c-.01-.18-.02-.35-.03-.53,.79-.12,1.58-.25,2.36-.37-.06,.24-.13,.49-.19,.73-.71,.06-1.43,.11-2.14,.17Z"/>
      <path class="cls-5" d="M64.02,64.14c.02,.07,.05,.15,.07,.22-.86,.21-1.74,.3-2.62,.18,.79-.62,1.71-.21,2.55-.4Z"/>
      <path class="cls-5" d="M15.77,52.49c.59-.65,1.27-.36,1.95-.21-.61,.48-1.3,.15-1.95,.21Z"/>
      <path class="cls-1" d="M77.07,67.67c-.43,.84-1.28,.51-1.94,.7,.47-.71,1.32-.39,1.94-.7Z"/>
      <path class="cls-2" d="M70.87,73.12c.46,0,.92-.12,1.51,.1-.55,.29-.98,.52-1.52,.31,0-.14,0-.28,.01-.41Z"/>
      <path class="cls-5" d="M70.87,73.12c0,.14,0,.28-.01,.41-.57-.05-1.15,.15-1.72-.04-.02-.12-.03-.25-.05-.37,.59,0,1.19,0,1.78,0Z"/>
      <path class="cls-5" d="M60.13,68.81c.48-.59,1.02-.46,1.57-.12-.5,.31-1.04,.14-1.57,.12Z"/>
      <path class="cls-1" d="M71.84,69.63c-.08,.25-.16,.5-.25,.75-.21-.03-.38-.11-.33-.37,.06-.3,.29-.4,.57-.38Z"/>
      <path class="cls-5" d="M17.74,56.42c-.28,.5-.54,.48-.8-.02,.27,0,.53,.01,.8,.02Z"/>
      <path class="cls-5" d="M35.81,73.4c.26-.41,.46-.39,.59,.09-.21,.06-.42,.1-.59-.09Z"/>
      <path class="cls-5" d="M57.41,62.38c.07-.05,.14-.1,.21-.16-.02,.12-.08,.18-.21,.16Z"/>
      <path class="cls-3" d="M36.23,50.94c.03,.33,.34,.41,.51,.62,.3,.36,.76,.77-.03,1.11-.82,.13-1.5,.45-1.94,1.43,.89-.27,1.56-.51,1.99-1.16,.32-.13,.47,.07,.6,.31,.42,.76,.63,1.59,.76,2.43,.15,.97-.69,1.11-1.32,1.26-.41,.1-.8,.13-1.14,.53,.85,.1,1.64,.23,2.44,.26,.5,.02,.75,.14,.63,.65-.22,.97,.54,1.93,0,2.89-.44-.11-.86-.4-1.39-.07,.58,.94,1.6,1.67,1.39,2.95-.61,.4-.69,1.12-1.02,1.68-.16,.28-.34,.62-.67,.54-.32-.07-.79-.05-.88-.58-.04-.21-.17-.42-.31-.58-.22-.24-.28-.79-.71-.66-.41,.12-.16,.56-.21,.85-.11,.61-.53,.22-.82,.01-.07-.51,.08-1.22-.92-1,.3,.25,.54,.46,.45,.84-.23,.08-.46,.16-.69,.24-.66-.83-.95-1.91-1.77-2.64-.3-.67-1.04-.86-1.48-1.37,.17-.38-.02-.72-.22-.99-.48-.66-.71-1.4-.9-2.18,.01-.55,.09-1.1,.03-1.64-.09-.8,.21-1.39,.83-1.8,.26-.17,.45-.39,.31-.59-.75-1.08-.14-2.01,.26-2.97,.43-.19,.65-.54,.73-.99,.04-.05,.05-.11,.01-.16,.25,.02,.51,.05,.76,.07,.14,.33-.05,.72,.18,1.03-.47,.74-.36,1.53-.26,2.55,.61-.91,.49-1.69,.46-2.46l.24-1.39c1.58-.59,2.86,.07,4.1,.95Zm-3.51,8.96c-.13,.07-.22,.18-.22,.34-.38,.27-.8,.5-1.26,.61-.16,.04-.36,.05-.29,.26,.11,.35,.37,.59,.71,.69,.32,.1,.72,.06,.78-.32,.06-.35,.4-.5,.44-.82,.47,0,1.28,.65,1.15-.57-.13-.39,.39-1.03-.37-1.17-.73-.14-.9,.39-.96,.97Zm-1.85,.61c.35-.98,.48-1.89-.14-2.89-.18,1.06-.88,2,.14,2.89Z"/>
      <path class="cls-4" d="M51.78,49.18c.93,1.13,1.72,2.45,2.85,3.32,.97,.74,1.9,1.86,3.36,1.75,.39,.32,1.28,.21,.99,1.13-.98,.46-1.96,.92-2.93,1.39-.07,.02-.14,.04-.21,.05-.08,.05-.15,.1-.23,.15-.86-.03-1.56,.28-2.15,.9-.94,.17-1.88,.01-2.81,.04-.17-.52,0-.99,.21-1.46,.84-.3,.57-1.03,.5-1.57-.39-2.72-1.29-5.26-2.71-7.62-.05-.7-.59-.95-1.12-1.16-.21-.08-.44-.09-.52-.34,.69-.48,.67-.78-.11-1.64,.82-.47,1.32-1.27,1.95-1.93-.11,.74,.32,.87,.92,.8,.07,.71,.15,1.42,.22,2.13-.36,1.22,.47,3.13,1.79,4.07Z"/>
      <path class="cls-6" d="M31.52,50.26c-.25-.02-.51-.05-.76-.07-.2-.61,.17-.96,.6-1.24,1.71-1.1,4.56-.4,5.59,1.37,.11,.19,.31,.43,.17,.62-.25,.35-.58-.12-.88,0-1.24-.88-2.52-1.54-4.1-.95-.23,.03-.56-.15-.61,.27Z"/>
      <path class="cls-6" d="M48.85,42.18c-.63,.66-1.13,1.46-1.95,1.93-.45,.14-.9,.28-1.34,.42-.31-.19-.63-.24-.99-.1-.77,.28-1.14-.04-1.14-.83,.61-.02,1.22-.02,1.83-.07,1.4-.12,2.1-1.29,2.99-2.12,.38-.35,.33-.77-.21-1.18-.6-.45-1.54-.58-1.71-1.52,.31-.13,.48,.27,.78,.21,.76,.36,1.48,.78,1.92,1.53,0,.29,.11,.54,.27,.78l-.45,.96Z"/>
      <path class="cls-6" d="M48.65,47.26c1.42,2.36,2.32,4.91,2.71,7.62,.08,.53,.34,1.26-.5,1.57-.53-.13-.47-.56-.44-.94,.15-1.84-.5-3.47-1.26-5.08-.39-.83-.32-1.83-.84-2.64-.13-.2,.12-.4,.33-.52Z"/>
      <path class="cls-6" d="M24.75,53.66c0-.25,0-.51,0-.76,.58-1.88,1.15-3.75,1.73-5.63,.25-.4,.72-.65,.8-1.17,.38,.02,.4-.51,.8-.51,.03,.08,.1,.18,.08,.23-.93,1.69-1.3,3.6-2.11,5.33-.26,.55-.11,1.14-.13,1.72-.05,1.03-.12,1.09-1.16,.8Z"/>
      <path class="cls-6" d="M30.37,42.03c-1.08,.23-2.18,.18-3.28,.19-.2-.13-.4-.27-.6-.4,1.67-.85,3.46-.8,5.26-.67,.32,.02,.64,.07,.95,.11,.07,.53-.27,.54-.66,.56-.56,.04-1.16-.21-1.67,.21Z"/>
      <path class="cls-6" d="M38.73,64.15c.21-1.28-.81-2.01-1.39-2.95,.53-.33,.95-.03,1.39,.07,.25,.59,.59,1.14,.73,1.79,.1,.49,.04,.91-.25,1.27-.26,.32-.36,0-.47-.18Z"/>
      <path class="cls-6" d="M28.59,58.34c.19,.77,.41,1.52,.9,2.18,.2,.27,.39,.61,.22,.99-.9-.15-1.96-2.05-1.59-2.88,.09-.2,.27-.27,.47-.28Z"/>
      <path class="cls-1" d="M45.55,44.53c.45-.14,.9-.28,1.34-.42,.78,.86,.8,1.16,.11,1.64-.44-.16-.88-.31-1.31-.48-.43-.17-.33-.45-.15-.75Z"/>
      <path class="cls-6" d="M31.19,62.87c.82,.72,1.11,1.81,1.77,2.64-.18,.05-.39,.18-.54,.13-.65-.2-1.45-2.06-1.23-2.77Z"/>
      <path class="cls-2" d="M36.77,52.94c-.43,.64-1.1,.88-1.99,1.16,.44-.98,1.12-1.3,1.94-1.43,.02,.09,.04,.18,.05,.27Z"/>
      <path class="cls-4" d="M33.65,65.27c.09-.37-.15-.59-.45-.84,1-.22,.84,.49,.92,1-.21,.1-.32-.08-.47-.16Z"/>
      <path class="cls-1" d="M30.74,50.35c-.08,.45-.3,.8-.73,.99-.03-.53,.07-.96,.73-.99Z"/>
      <path class="cls-3" d="M49.3,41.22c-.16-.24-.26-.49-.27-.78,.44-.61-.31-1.11-.18-1.69,.72-.1,.39-.52,.22-.82-.86-1.47-.96-3-.49-4.62-1.1,1.17-.94,2.61-.88,4.03-.42,.44,.09,1.23-.6,1.56-.29,.06-.47-.34-.78-.21-.2-.07-.41-.14-.61-.21-.06-.12-.13-.24-.19-.36-.12-.78-.24-1.57-.36-2.35,.54,.08,.52-.39,.57-.67,.25-1.23,.69-2.39,1.35-3.45,.85-1.38,2.09-2.28,3.71-2.62,0,.35,0,.7,0,1.05-1.4,.83-2.24,2.12-1.89,3.16,.63-1.74,2.14-2.21,3.49-2.9,.58,.1,.96-.23,1.31-.61,.47,.05,.79,.36,1.15,.6,.02,.16,.02,.33,.22,.38-.15,1.01,.62,1.14,1.31,1.35,.5,1.19,.49,2.43,.35,3.69-.49,.4-.88,.82-.16,1.36-.4,.69-.48,1.7-1.66,1.57-.07,0-.16,.08-.21,.15-.61,.84-1.38,1.48-2.49,1.85,.81,.41,1.39,.14,1.94-.21,.29-.19,.55-.5,.92-.44,.71,.12,1.09-.27,1.37-.81,.7-1.33,1.5-2.64,1.35-4.25-.05-.51,0-1.03,.02-1.55,.16-.04,.32-.11,.34-.29,.11-1.13,.12-2.22-1.11-2.82-.76-1.74-2.35-1.84-3.92-1.99-.03-.22-.16-.36-.39-.34-.86,.07-1.22-.44-1.38-1.18,.28-1.04,1.11-1.7,2.32-1.69,1.15,0,2.29-.03,3.38-.43,.14-.05,.35-.09,.41-.2,.46-.88,1.3-.76,2.08-.79,.48,.31,.95,.64,1.56,.57,1.41,.18,2.49,.84,3.1,2.17-.19,.07-.39,.15-.58,.22-1.35-.39-2.69-.59-4.11-.27-.52,.12-.79,.35-.73,.75,.08,.52,.49,.25,.81,.17,.49-.12,1.03-.37,1.47-.25,.87,.24,1.71,.15,2.56,.13,.44,.43,1.12,0,1.56,.42-.04,1.34,.22,2.6,.72,3.86,.37,.93,0,1.97-.17,2.93-.38,2.26-.43,4.52-.38,6.8-.2,.03-.43-.02-.56,.21-.78,0-1.56,.01-2.34,.02-2.67,.38-5.35,.35-8.04,.39-.59,0-1.23,.33-1.9,.39-.38,.04-.72,.42-.53,.94-.48,.01-.81,.57-1.35,.38-.02-.38-.04-.76-.06-1.14-.32-.51-1.05-.58-1.3-1.18Zm14.02-11.95c-.08,.17-.07,.34,.01,.5,0,.12,0,.25,0,.37-.07,.12,.02,.17,.09,.23,.08,.97-.3,1.91-.13,2.88,0,.07,0,.13,0,.2,0,.19,0,.38,0,.58,0,.07,0,.13,0,.2,0,.39,0,.77,0,1.16,0,.08,0,.16,0,.24,.63,.2,.54-.27,.54-.61,.01-1.57,.01-3.14,0-4.71,0-.27,.08-.62-.4-.56-.01-.06-.01-.13,0-.19,.77-.09,.28-.48,.19-.78-.03-.19,.08-.53-.21-.51-.29,.02-.17,.31-.13,.51,0,.16,0,.33,.01,.49Zm-4.52,.48c0,.2-.16,.45,.11,.57,.09,.04,.24-.01,.36-.02-.04-.18-.09-.35-.13-.53,0-.14-.07-.22-.2-.19-.06,.01-.09,.11-.14,.17Zm4.43,8.37c-.15,.1-.17,.26-.17,.42,0,.3-.1,.71,.37,.73,.49,.02,.4-.39,.4-.69,0-.15-.07-.29-.11-.44-.16-.69,.3-1.48-.25-2.19-.65,.75-.22,1.48-.24,2.17Zm-8.74-2.76c.34,.06,.68,.12,1.02,.18,.24,.04,.46,.03,.51-.27,.04-.26-.07-.46-.35-.43-.39,.03-.83-.19-1.16,.19-1.14-.26-2.27-.69-3.69-.14,1.36,.37,2.45,.88,3.67,.48Zm4.85,3.53c.01-1.52,.03-3.03,.03-4.55,0-1.13,0-2.26-.02-3.39,0-.17,.07-.43-.25-.39-.1,.01-.27,.2-.25,.24,.43,1.06-.2,2.06-.11,3.12,.16,1.83,.33,3.68-.15,5.5-.11,.42,.2,.74,.53,.79,.39,.06,.2-.37,.27-.58,.25-.27,.2-.52-.06-.76Zm1.55-1.94c-.28,.45-.29,.9,.01,1.34,.11,.43-.11,.9,.14,1.35,.76-.31,.46-.99,.51-1.49,.22-2.45-.47-4.93,.34-7.36,.12-.35,.02-.77,0-1.16,0-.25-.13-.45-.4-.45-.21,0-.38,.17-.38,.37,0,.45-.22,.84-.22,1.31,.03,2.03,0,4.06-.02,6.09Zm-7.06-5.49c-.67,.06-1.19,.54-1.81,.81-.19,.08-.46,.12-.3,.41,.15,.28,.35,.09,.56,.01,.59-.21,1.11-.6,1.76-.63,.2,0,.41-.11,.33-.33-.06-.17-.21-.41-.54-.27Z"/>
      <path class="cls-6" d="M20.43,40.51c1.96-.81,3.92-1.62,5.88-2.44,.9-.29,1.87-.4,2.71-.89,1.42,.21,2.8-.32,4.22-.25,1.57,.08,3.15,0,4.73,0,.86,.43,1.82,.15,2.7,.4,.25,.1,.56,.02,.76,.26-.03,.49-.52,.22-.72,.43-1.9-.08-3.79-.27-5.67-.52-.06-.09-.13-.1-.2-.01-.26,0-.52,0-.77,.01-.86-.08-1.74-.48-2.53,.22-2.86,0-5.45,.97-7.97,2.18-2.57,1.22-5.21,2.3-7.6,3.87-.58,.38-1.15,.78-1.72,1.18-.18-.09-.19-.27-.24-.43,.25-.52,.51-1.04,.76-1.56,1.76-.13,3.15-1.21,4.66-1.93,.33-.16,.69-.3,1-.5Z"/>
      <path class="cls-4" d="M26.48,47.27c-.58,1.88-1.15,3.75-1.73,5.63-.45-.57-.9-.95-1.36-.01-.41-.38-.82-.76-1.23-1.14,.46,0,.94-.01,1.14-.53,.2-.53-.36-.59-.59-.86-.16-.2-.24-.46-.5-.57-.51-.7-.35-1.41,.34-1.73,1.09-.51,1.83-1.39,2.75-2.09,0,.09,.02,.2-.01,.28-.39,.98-.39,.99,.71,1.01,.16,0,.32,0,.48,.01Z"/>
      <path class="cls-6" d="M25.31,45.96c-.91,.7-1.66,1.58-2.75,2.09-.69,.32-.85,1.03-.34,1.73-.46,.12-.93,.42-1.39,0-.22-.63,.3-.94,.59-1.36,.92-.84,1.8-1.7,2.83-2.41,.3-.21,.86-.5,.58-.96-.17-.28-.69-.09-1.07-.03-1.33,.21-2.36,1.01-3.45,1.69-.09-.09-.18-.18-.27-.27,1.07-1.02,2.4-1.57,3.73-2.13,.4-.17,.79-.39,1.21-.52,.32-.1,.7-.23,.99,.08,.27,.29,.22,.68,.06,.99-.2,.38-.29,.85-.72,1.08Z"/>
      <path class="cls-4" d="M21.42,48.42c-.29,.41-.81,.72-.59,1.36-.32,0-.62,.04-.92,.17-.81,.34-1.61,.55-2.37-.15-.27-.25-.66-.2-1-.25,.52-.63,1.54-.85,1.57-1.89,0,0,0,0,0,0,.65,.01,1.16-.39,1.75-.56,.24,.76,.27,1.78,1.55,1.34Z"/>
      <path class="cls-6" d="M24.93,42.58c-1.23,.59-2.6,.77-3.86,1.33-1.21,.54-2.15,1.42-3.26,2.05-.27,.15-.51,.57-.8,.26-.29-.31,.18-.46,.35-.65,1.56-1.78,3.77-2.32,5.9-2.99,.48-.15,.96-.28,1.45-.42,.19,.08,.22,.25,.23,.43Z"/>
      <path class="cls-4" d="M16.75,51.28c-.52,.05-1.06-.06-1.55,.2-.24-.21-.36-.04-.49,.14-.1,.01-.19,.02-.29,.04-.24-.21-.36-.01-.49,.14-.16,.04-.32,.09-.49,.13-.07-.17-.23-.17-.37-.19l-.04-.04c.07-.32,.18-.63,.45-.83,.39-.28,2.81,.04,3.27,.41Z"/>
      <path class="cls-2" d="M18.1,47.65c-.03,1.04-1.05,1.25-1.57,1.89-.31,0-.63,0-1.25,0,1.11-.68,1.64-1.72,2.82-1.89Z"/>
      <path class="cls-6" d="M45.53,38.14c.06,.12,.13,.24,.19,.36-.72,.39-1.45,.04-2.14-.06-.51-.07-1.02-.08-1.52-.17,.06-.18,.12-.35,.18-.53,1.12-.02,2.15,.63,3.29,.4Z"/>
      <path class="cls-5" d="M24.93,42.58c-.01-.18-.04-.34-.23-.43,.52-.5,1.17-.37,1.79-.33,.2,.13,.4,.27,.6,.4-.67,.4-1.41,.42-2.16,.36Z"/>
      <path class="cls-5" d="M19.86,47.09c-.59,.17-1.1,.57-1.75,.56,.36-.86,1.33-.73,1.93-1.2,.09,.09,.18,.18,.27,.27-.15,.12-.29,.25-.44,.37Z"/>
      <path class="cls-5" d="M31.54,37.71c.79-.7,1.68-.3,2.53-.22-.81,.42-1.68,.22-2.53,.22Z"/>
      <path class="cls-5" d="M42.24,37.74c-.06,.18-.12,.35-.18,.53-.45-.08-.99,.34-1.34-.26,.2-.21,.69,.06,.72-.43,.27,.03,.59-.2,.8,.16Z"/>
      <path class="cls-4" d="M13.02,52.08c-.12-.02-.24-.03-.36-.05,.02-.23,.17-.31,.37-.34,0,0,.04,.04,.04,.04-.02,.12-.03,.23-.05,.35Z"/>
      <path class="cls-5" d="M34.84,37.48c.07-.09,.14-.08,.2,.01-.07,0-.14,0-.2-.01Z"/>
      <path class="cls-6" d="M16.76,27.23c1.7,.67,2.68,1.85,3.18,3.68,.54,2.01,1,3.96,.71,6.04-.68,.1-.87-.27-.78-.85,.3-1.98-.46-3.8-.87-5.66-.22-1-.92-1.77-1.75-2.36-.32-.23-.53-.45-.49-.85Z"/>
      <path class="cls-6" d="M14.79,37.94c.02-1.72-.87-3.25-.98-4.96-.06-.82-.93-.84-1.55-1.05,.01-.06,.01-.12,0-.17,.23-.68,.71-.87,1.26-.43,.61,.48,1.05,1.04,1.14,1.92,.13,1.3,.51,2.57,.74,3.86,.08,.42,.05,.88-.59,.84Z"/>
      <path class="cls-2" d="M12.24,31.76c.02,.06,.02,.11,0,.17-.18,.23-.28,.1-.37-.08,.12-.03,.24-.06,.36-.09Z"/>
      <path class="cls-3" d="M65.22,54.61c.02-1.02,.95-.98,1.54-1.33,1.16-.62,2.35-1.15,3.71-1.11,.05,0,.11-.06,.16-.09h2.72c-.34,.52-.91,.56-1.02,1.03-1.09,.61-2.18,1.21-3.28,1.82-1.35,.75-2.64,.65-3.85-.32Z"/>
      <path class="cls-6" d="M69.86,48.99c.14-.32,.29-.63,.43-.95,.23-.06,.46-.12,.17-.4,.66-2.62,1.7-5.08,3.04-7.43,.6-1.06,1.56-1.65,2.77-1.82,0,.34-.26,.53-.48,.69-1.58,1.1-2.3,2.73-3.06,4.44-.91,2.04-1.18,4.32-2.43,6.23-.29,.44-.48,.77-1.02,.4,.15-.32,.3-.64,.45-.96,.05-.07,.1-.14,.15-.21Z"/>
      <path class="cls-2" d="M82.19,39.31c.04,.46-.35,.74-.47,1.13-.52,.12-.46,1.26-1.34,.77-.61-.94-1.8-1.14-2.52-1.93-.01-.14-.16-.36,.1-.37,1.28-.01,2.56,0,3.84,.02,.23,0,.3,.22,.39,.38Z"/>
      <path class="cls-6" d="M77.86,39.28c.73,.79,1.91,.99,2.52,1.93-.05,.71-.24,1-.9,.39-.46-.43-1.01-.77-1.52-1.15-.49-.36-.52-.74-.1-1.17Z"/>
      <path class="cls-6" d="M70.64,52.08c-.05,.03-.11,.09-.16,.09-1.36-.04-2.55,.49-3.71,1.11,.17-.98,1.16-1.17,1.72-1.77,.57-.29,1.18,.03,1.78-.11,.53-.12,.34,.39,.38,.68Z"/>
      <path class="cls-2" d="M78.07,38.07c.27-.57,.75-.26,1.15-.26-.28,.53-.76,.21-1.15,.26Z"/>
      <path class="cls-6" d="M82.28,83.2c.22-1.14-.68-2.02-.72-3.11,.36-.16-.1-.48,.13-.66,.71,.53,1.44,2.8,1.19,3.63-.14,.45-.39,.17-.6,.14Z"/>
      <path class="cls-6" d="M65.85,10.89c-.59,0-1.18,0-1.77,0-.16,0-.35-.05-.33-.25,0-.09,.15-.24,.25-.25,.65-.07,1.31-.21,1.88,.23-.01,.09-.02,.18-.03,.27Z"/>
      <path class="cls-4" d="M78.8,63.79c-.43-.07-.68-.32-.77-.74,.48-.13,.74,.07,.82,.55-.02,.06-.04,.13-.05,.19Z"/>
      <path class="cls-3" d="M58.98,55.38c.3-.92-.6-.81-.99-1.13-.98-.96-1.82-2.09-3.29-2.37-.05-.05-.1-.11-.15-.16-.07-.19-.14-.38-.22-.57,.2-.15,.4-.3,.6-.45,.43,.08,.85,.12,1.29,.04,1.36,.73,3.23,.56,4.1-.37,.14,.07,.27,.14,.41,.21,.06,.08,.11,.16,.17,.24,.06,.31-.1,.68,.24,.91,0,.09,0,.18-.01,.26-.34-.03-.69-.19-.98,.13-.55-.15-.79,.14-.94,.63-.09,.29-.07,.55,.2,.66,.4,.17,.81,.18,1.13-.2,.08-.1,.16-.2,.23-.3,.54-.12,.25-.57,.34-.87,.48,.22,.59,.75,.95,1.08,0,.52,.27,1.03,.02,1.56-1.03,.24-2.07,.48-3.1,.72Z"/>
      <path class="cls-6" d="M55.61,56.97c.08-.05,.15-.1,.23-.15-.08,.05-.15,.1-.23,.15Z"/>
      <path class="cls-6" d="M50.8,29.04c-1.61,.34-2.85,1.24-3.71,2.62-.65,1.06-1.1,2.22-1.35,3.45-.06,.28-.03,.75-.57,.67-.21-2.25,.79-4.12,2.06-5.8,.62-.82,1.83-1.22,2.85-1.37,1-.15,2.03-.35,3.06-.27,1.57,.15,3.16,.25,3.92,1.99,.47,.98,.97,1.96,.78,3.11,0,.52-.06,1.04-.02,1.55,.15,1.61-.65,2.91-1.35,4.25-.28,.54-.66,.93-1.37,.81-.37-.06-.63,.25-.92,.44-.56,.35-1.14,.62-1.94,.21,1.11-.37,1.88-1.01,2.49-1.85,.05-.07,.15-.16,.21-.15,1.18,.13,1.27-.88,1.66-1.57,.05-.45,.11-.91,.16-1.36,.14-1.25,.15-2.5-.35-3.69,.28-.9-.49-1.36-.86-1.98-.08-.13-.27,.05-.33,.21-.11,.01-.23,.02-.34,.03-.36-.25-.69-.56-1.15-.6-.06-.07-.12-.14-.19-.21-.04-.39-.35-.5-.65-.55-.7-.1-1.4-.27-2.09,.05Z"/>
      <path class="cls-6" d="M19.68,27.46c.29-.69,.87-.96,1.55-1.01,2.29-.17,4.52,.36,6.77,.66,1.39,.18,2.78,.37,4.18,.5,3.13,.29,6.28,.35,9.42,.63,1.22,.11,2.47,.24,3.77,.66-.61,.49-1.28,.36-1.83,.25-.71-.15-1.41-.1-2.11-.15-3.06-.21-6.14-.29-9.18-.76-1.17-.18-2.37-.04-3.56-.18-2.54-.3-5.08-.81-7.67-.61-.39,.03-.78,.03-1.16,.04-.05-.05-.11-.06-.17-.02Z"/>
      <path class="cls-6" d="M23.39,33.24c-.01-.26-.05-.52-.03-.77,.12-1.26,.69-1.55,1.9-1.23,.98,.26,2.03,.09,3.06,.23,2.19,.3,4.42,.19,6.6,.63,1.46,.29,2.9,.67,4.39,.85,0,.14,0,.28,0,.42-1.29,.29-2.55-.08-3.78-.35-1.17-.26-2.35-.16-3.52-.3-2.02-.24-4.05-.59-6.11-.44-.66,.05-1.25,.13-1.75,.58-.26,.12-.38,.5-.75,.39Z"/>
      <path class="cls-3" d="M29.02,37.18c-.84,.49-1.8,.6-2.71,.89-.31-1.04-.09-1.46,.93-1.68,.25-.05,.42-.11,.42-.4,.56-1.04,1.53-.42,2.31-.55-.13,.68-1.02,.95-.94,1.74Z"/>
      <path class="cls-5" d="M23.6,34.24c-.69,.81-.55,1.88-.89,2.79-.19,.5-.21,1.42-.86,1.28-.56-.12-.11-.9-.04-1.37,.17-1.15,.58-2.21,1.38-3.09,.3-.04,.36,.18,.42,.4Z"/>
      <path class="cls-6" d="M29.96,35.44c-.78,.14-1.74-.48-2.31,.55-.31-.1-.56-.29-.33-.62,.3-.42,.38-1.13,1.01-1.15,.72-.03,1.45,.11,2.16,.23,.16,.03,.43,.36,.39,.45-.15,.4-.51,.53-.93,.53Z"/>
      <path class="cls-5" d="M42.01,36.15c-.84-.16-1.31-.99-2.17-1.14-.18-.03-.36-.29-.29-.55,.09-.3,.36-.24,.56-.22,1.02,.11,1.82,.53,2.18,1.56-.1,.11-.19,.22-.29,.34Z"/>
      <path class="cls-5" d="M39.3,33.36c0-.14,0-.28,0-.42,1.51,.22,3.05,.08,4.57,.32-1.51,.4-3.05,.14-4.58,.1Z"/>
      <path class="cls-6" d="M33.68,34.94c.43-.48,.78-1.08,1.5-.49,.22,.18,.45,.42,.35,.72-.09,.28-.41,.23-.67,.25-.45,.04-.79-.16-1.19-.48Z"/>
      <path class="cls-6" d="M25.06,35.81c.13-.53-.28-.92-.35-1.39,.07-.07,.14-.14,.21-.21,1.06,.45,1.28,1.31,.57,1.94-.14-.11-.29-.23-.43-.34Z"/>
      <path class="cls-4" d="M24.92,34.21c-.07,.07-.14,.14-.21,.21-.37-.06-.71-.27-1.11-.18-.05-.22-.11-.43-.42-.4,.07-.2,.13-.4,.2-.6,.37,.11,.5-.27,.75-.39-.27,.76,.66,.82,.78,1.36Z"/>
      <path class="cls-4" d="M40.68,37.32c-.88-.25-1.85,.03-2.7-.4,.95-.2,1.92-.52,2.7,.4Z"/>
      <path class="cls-4" d="M25.06,35.81c.14,.11,.29,.23,.43,.34,0,.22,.02,.44,0,.66-.02,.28-.17,.53-.46,.49-.45-.06-.16-.38-.13-.58,.05-.3-.1-.64,.15-.9Z"/>
      <path class="cls-2" d="M45.2,23.23c-.11,.44-.8,.13-.85,.65-.25,0-.49,0-.74,0-.13-.24-.11-.49,.19-.49,.48,0,.91-.31,1.4-.16Z"/>
      <path class="cls-4" d="M38.93,22.64c.32-.15,.65-.11,.98-.05-.3,.55-.63,.51-.98,.05Z"/>
      <path class="cls-4" d="M42.01,36.15c.1-.11,.19-.23,.29-.34,.19,.36-.06,.34-.29,.34Z"/>
      <path class="cls-4" d="M19.68,27.46c.06-.04,.12-.03,.17,.02-.07,.09-.12,.07-.17-.02Z"/>
      <path class="cls-5" d="M35.55,22.73s-.01,0-.01,0c0,0,0,0,.01,0Z"/>
      <path class="cls-3" d="M53.75,50.35c-.33-.17-.54-.44-.69-.77-.19-.42,.05-.57,.39-.51,2.14,.4,4.23,.03,6.31-.42,.06-.01,.13-.01,.19-.02,.57,.5,.1,1,0,1.5-1.2,.37-2.42,.43-3.66,.31-.45-.19-.91-.07-1.37-.07-.39,0-.77,0-1.16-.01Z"/>
      <path class="cls-6" d="M56.28,50.43c1.24,.12,2.46,.06,3.66-.31,.12,.08,.35,0,.38,.23-.87,.93-2.73,1.1-4.1,.37,.02-.1,.04-.2,.05-.29Z"/>
      <path class="cls-4" d="M61.13,51.98c0-.09,0-.18,.01-.26,.28-.16,.59-.31,.83,.04,.28,.42,.53,.87,.1,1.35-.36-.32-.48-.86-.95-1.08,0,0,.01-.04,.01-.04Z"/>
      <path class="cls-6" d="M60.9,50.8c-.06-.08-.11-.16-.17-.24,.11-.08,.22-.16,.34-.24,.07,.21,.03,.37-.17,.48Z"/>
      <path class="cls-5" d="M70.46,47.64c.29,.28,.06,.34-.17,.4-.05-.18-.06-.34,.17-.4Z"/>
      <path class="cls-5" d="M82.29,35.22c.07,.06,.14,.13,.21,.19-.07-.06-.14-.13-.21-.19Z"/>
      <path class="cls-5" d="M69.86,48.99c-.05,.07-.1,.14-.15,.21-.04-.13,.03-.19,.15-.21Z"/>
      <path class="cls-6" d="M70.65,28.59c-.48,.78-1.22,1.3-1.84,1.95-1.11,1.17-1.26,2.82-.29,4.17,.26,.36,.43,.75,.61,1.23-.46,.09-.61-.21-.82-.43-1.32-1.39-1.04-3.04-.63-4.62,.35-1.32,1.47-1.98,2.75-2.35,.07,.02,.14,.04,.22,.05Z"/>
      <path class="cls-4" d="M70.65,28.59c-.07-.02-.14-.04-.22-.05,.33-.38,.5-.78,.2-1.26,.76,.02,1.64-.45,2.17,.52-.71,.29-1.37,.69-2.15,.79Z"/>
      <path class="cls-2" d="M70.03,33.97c.77-.35,.95,.25,1.26,.61,.08,.1,.15,.22,.05,.33-.12,.13-.31,.14-.43,.02-.29-.28-.54-.59-.88-.97Z"/>
      <path class="cls-3" d="M64.8,41.61c.43,1.11,.15,2.16-.16,3.24-.33,1.12-1.06,1.5-2.14,1.89-1.22,.45-2.42,1.03-3.68,1.3-1.8,.39-3.64,1.02-5.49,.15-.46-.6-1.25-1.17-.2-1.93,.46,.26,.73-.68,1.17-.23,.62,.64,.81,.22,1-.33,.53-.2,.43-.5,.04-.7-.23-.12-.55-.06-.83-.07-.62-.26-1.22-.42-1.57,.4-.88-.1-1.25-.53-1.06-1.24,.08-.3,.19-.6,.28-.9,2.81-.12,5.69,.4,8.39-.78,.63-.27,1.34,0,1.92-.42,.81,.1,1.59-.04,2.34-.36v-.02Zm-3.29,2.72c-.24-.32-.47-.18-.7,0-.15,.44-.18,.86,.27,1.16,.32,.2,.62,.48,.83-.16,.17-.51,.29-.91-.41-1.03v.02Zm-4.3,1.88c.02,.23-.07,.63,.43,.54,.35-.06,.85-.13,.74-.65-.07-.33-.17-.8-.67-.79-.56,.01-.5,.46-.51,.91Zm2.48-2.17c-.09,0-.18,0-.28,.01,.02,.84-.17,1.68,.28,2.5v-2.51Z"/>
      <path class="cls-1" d="M53.13,46.27c-1.05,.76-.26,1.33,.2,1.93-.47,.17-.72-.12-.94-.45-.83-1.29-1.19-2.78-1.74-4.19,.54,.19,.86-.37,1.35-.38,0,0,.08,0,.08,0l.08,.03c-.1,.3-.2,.6-.28,.9-.19,.71,.19,1.13,1.06,1.24,.06,.31,.12,.62,.19,.93Z"/>
      <path class="cls-5" d="M51.78,49.18c-1.31-.94-2.15-2.86-1.79-4.07,.32,.81,.73,1.59,.92,2.43,.15,.65,1,.89,.86,1.64Z"/>
      <path class="cls-1" d="M49.3,41.22c.24,.6,.97,.67,1.3,1.18-.47-.09-.86-.07-.82,.57-.6,.07-1.03-.05-.92-.8,.15-.32,.3-.64,.45-.96Z"/>
      <path class="cls-5" d="M63.64,26.68c.19-.07,.39-.15,.58-.22,.85-.04,1.04,.46,.97,1.17-.44-.43-1.12,0-1.56-.42,0-.18,0-.35,0-.53Z"/>
      <path class="cls-5" d="M61.12,24.29c-.62,.07-1.09-.26-1.56-.57,.29-.71,.9-.27,1.36-.37-.36,.41,.2,.61,.2,.94Z"/>
      <path class="cls-4" d="M53.75,50.35c.39,0,.77,0,1.16,.01,.01,.11,.02,.21,.03,.32-.2,.15-.4,.3-.6,.45-.33-.16-.59-.38-.59-.79Z"/>
      <path class="cls-4" d="M64.81,41.43c.12-.23,.36-.18,.56-.21-.03,.36-.21,.5-.57,.39,0,0,.01,.02,.01,.02,0-.07,0-.13,0-.2Z"/>
      <path class="cls-4" d="M54.56,51.71c.05,.05,.1,.11,.15,.16-.13,.02-.19-.03-.15-.16Z"/>
      <path class="cls-5" d="M13.02,52.08c.02-.12,.03-.23,.05-.35,.14,.03,.3,.02,.37,.19-.09,.2-.25,.19-.42,.15Z"/>
      <path class="cls-5" d="M13.93,51.8c.13-.15,.26-.34,.49-.14-.12,.22-.29,.25-.49,.14Z"/>
      <path class="cls-5" d="M14.72,51.62c.12-.18,.25-.36,.49-.14-.11,.21-.28,.24-.49,.14Z"/>
      <path class="cls-6" d="M32.9,60.66c-.04,.32-.38,.47-.44,.82-.07,.38-.46,.42-.78,.32-.34-.1-.61-.34-.71-.69-.07-.21,.13-.22,.29-.26,.46-.12,.87-.34,1.26-.61,.13,.14,.26,.28,.39,.42Z"/>
      <path class="cls-6" d="M30.87,60.51c-1.03-.89-.32-1.83-.14-2.89,.62,1,.49,1.91,.14,2.89Z"/>
      <path class="cls-5" d="M32.73,59.9c.06-.58,.23-1.11,.96-.97,.77,.14,.24,.78,.37,1.17-.44-.07-.89-.13-1.33-.2Z"/>
      <path class="cls-5" d="M31.89,51.37c.03,.77,.16,1.56-.46,2.46-.1-1.02-.2-1.81,.26-2.55,.06,.03,.13,.06,.19,.09Z"/>
      <path class="cls-2" d="M32.73,59.9c.44,.06,.89,.13,1.33,.2,.12,1.22-.68,.56-1.15,.57-.13-.14-.26-.28-.39-.42,0-.16,.08-.27,.22-.34Z"/>
      <path class="cls-4" d="M31.89,51.37c-.06-.03-.13-.06-.19-.09-.23-.31-.03-.7-.18-1.03,.06-.43,.38-.24,.61-.27-.08,.46-.16,.92-.24,1.39Z"/>
      <path class="cls-1" d="M48.85,38.75c-.13,.58,.61,1.07,.18,1.69-.45-.75-1.16-1.17-1.92-1.53,.69-.34,.17-1.13,.6-1.56,.41,.45,.56,1.1,1.15,1.41Z"/>
      <path class="cls-6" d="M52.16,43.19l-.08-.03s-.08,0-.08,0c-.18-.52,.15-.9,.53-.94,.66-.06,1.31-.38,1.9-.39,2.69-.04,5.37-.01,8.04-.39,0,.18,0,.36,0,.54-.57,.42-1.29,.15-1.92,.42-2.7,1.18-5.58,.67-8.39,.78Z"/>
      <path class="cls-5" d="M60.89,36.96c.01-2.03,.05-4.06,.02-6.09,0-.46,.23-.86,.22-1.31,0-.2,.17-.37,.38-.37,.26,0,.39,.2,.4,.45,.01,.39,.11,.81,0,1.16-.81,2.43-.12,4.91-.34,7.36-.05,.51,.25,1.18-.51,1.49-.25-.46-.03-.92-.14-1.35,.3-.45,.33-.9-.01-1.34Z"/>
      <path class="cls-6" d="M59.4,39.65c-.08,.21,.12,.64-.27,.58-.33-.05-.65-.38-.53-.79,.49-1.82,.31-3.67,.15-5.5-.09-1.05,.54-2.06,.11-3.12-.02-.04,.15-.23,.25-.24,.31-.04,.24,.21,.25,.39,.01,1.13,.02,2.26,.02,3.39,0,1.52-.02,3.03-.03,4.55-.25,.27-.28,.53,.06,.76Z"/>
      <path class="cls-6" d="M63.64,26.68c0,.18,0,.35,0,.53-.86,.02-1.7,.11-2.56-.13-.43-.12-.98,.13-1.47,.25-.32,.08-.74,.35-.81-.17-.06-.4,.21-.63,.73-.75,1.42-.31,2.76-.12,4.11,.27Z"/>
      <path class="cls-6" d="M48.85,38.75c-.59-.3-.74-.96-1.15-1.41-.07-1.42-.22-2.86,.88-4.03-.47,1.62-.37,3.15,.49,4.62,.18,.3,.5,.72-.22,.82Z"/>
      <path class="cls-6" d="M52.41,30.36c-1.35,.69-2.86,1.16-3.49,2.9-.35-1.05,.49-2.33,1.89-3.16,.45-.04,.88-.23,1.35-.14,.09,.13,.17,.27,.26,.4Z"/>
      <path class="cls-6" d="M63.3,33.26c-.17-.97,.21-1.92,.13-2.88-.03-.08-.06-.15-.09-.23,0-.12,0-.25,0-.37,0,0,.06,.02,.06,.02l.06-.04c.48-.06,.4,.29,.4,.56,0,1.57,0,3.14,0,4.71,0,.34,.08,.81-.54,.61,.09-.08,.08-.16,0-.24,0-.39,0-.77,0-1.16,.02-.02,.06-.05,.06-.06-.01-.05-.04-.1-.07-.14,0-.19,0-.38,0-.58,.02-.02,.07-.04,.06-.06-.01-.05-.04-.1-.06-.14Z"/>
      <path class="cls-1" d="M52.15,29.96c-.46-.09-.9,.09-1.35,.14,0-.35,0-.7,0-1.05,.69-.32,1.39-.15,2.09-.05,.31,.05,.61,.15,.65,.55-.46,.14-.92,.28-1.39,.42Z"/>
      <path class="cls-6" d="M54.49,35.37c-1.22,.4-2.31-.11-3.67-.48,1.42-.54,2.55-.12,3.69,.14,0,.11,0,.23-.01,.34Z"/>
      <path class="cls-1" d="M55.21,30.32c.07-.16,.25-.34,.33-.21,.37,.62,1.14,1.08,.86,1.98-.69-.21-1.46-.34-1.31-1.36,.15-.11,.17-.25,.12-.42Z"/>
      <path class="cls-6" d="M53.83,31.48c.33-.13,.48,.1,.54,.27,.08,.22-.13,.32-.33,.33-.65,.03-1.17,.42-1.76,.63-.21,.07-.41,.27-.56-.01-.16-.29,.11-.32,.3-.41,.62-.27,1.14-.75,1.81-.81Z"/>
      <path class="cls-1" d="M57.84,33.45c.19-1.15-.31-2.12-.78-3.11,1.23,.6,1.22,1.69,1.11,2.82-.02,.18-.17,.25-.34,.29Z"/>
      <path class="cls-5" d="M62.47,41.99c0-.18,0-.36,0-.54,.78,0,1.56-.01,2.34-.02,0,.07,0,.13,0,.2-.75,.31-1.52,.46-2.34,.36Z"/>
      <path class="cls-1" d="M54.49,35.37c0-.11,0-.23,.01-.34,.33-.38,.77-.15,1.16-.19,.28-.03,.39,.17,.35,.43-.05,.3-.27,.31-.51,.27-.34-.06-.68-.12-1.02-.18Z"/>
      <path class="cls-6" d="M63.23,38.13c.03-.69-.41-1.43,.24-2.17,.55,.71,.09,1.5,.25,2.19-.16,0-.33-.01-.49-.02Z"/>
      <path class="cls-2" d="M63.23,38.13c.16,0,.33,0,.49,.02,.04,.15,.11,.29,.11,.44,0,.3,.1,.72-.4,.69-.47-.02-.36-.43-.37-.73,0-.16,.01-.32,.17-.42Z"/>
      <path class="cls-4" d="M52.15,29.96c.46-.14,.92-.28,1.39-.42,.06,.07,.12,.14,.19,.21-.36,.38-.73,.71-1.31,.61-.09-.13-.17-.27-.26-.4Z"/>
      <path class="cls-1" d="M56.75,35.78c-.05,.45-.11,.91-.16,1.36-.72-.54-.33-.96,.16-1.36Z"/>
      <path class="cls-2" d="M60.89,36.96c.35,.44,.32,.89,.01,1.34-.31-.44-.29-.89-.01-1.34Z"/>
      <path class="cls-1" d="M59.4,39.65c-.34-.22-.32-.48-.06-.76,.27,.23,.31,.48,.06,.76Z"/>
      <path class="cls-5" d="M59.13,29.77c.04,.18,.09,.35,.13,.53-.12,.01-.26,.07-.36,.02-.27-.13-.11-.37-.11-.57,.11,0,.22,.01,.33,.02Z"/>
      <path class="cls-6" d="M63.64,28.79c.08,.3,.58,.69-.19,.78l-.13-.29c0-.16,0-.33-.01-.49,.11,0,.22,0,.33,0Z"/>
      <path class="cls-5" d="M63.64,28.79c-.11,0-.22,0-.33,0-.05-.2-.17-.49,.13-.51,.29-.01,.18,.32,.21,.51Z"/>
      <path class="cls-5" d="M55.21,30.32c.05,.16,.03,.31-.12,.42-.21-.05-.2-.22-.22-.38,.11-.01,.23-.02,.34-.03Z"/>
      <path class="cls-2" d="M59.13,29.77c-.11,0-.22-.01-.33-.02,.04-.06,.08-.16,.14-.17,.13-.03,.2,.05,.2,.19Z"/>
      <path class="cls-5" d="M63.32,29.27l.13,.29c-.01,.06-.01,.13,0,.19,0,0-.06,.04-.06,.04,0,0-.06-.02-.06-.02-.09-.17-.09-.33-.01-.5Z"/>
      <path class="cls-5" d="M63.29,34.03s.05,.09,.07,.14c0,.01-.04,.04-.06,.06,0-.07,0-.13,0-.2Z"/>
      <path class="cls-5" d="M63.29,35.39c.08,.08,.09,.16,0,.24,0-.08,0-.16,0-.24Z"/>
      <path class="cls-5" d="M63.3,33.26s.05,.09,.06,.14c0,.01-.04,.04-.06,.06,0-.07,0-.13,0-.2Z"/>
      <path class="cls-5" d="M63.33,30.15c.03,.08,.06,.15,.09,.23-.08-.06-.16-.11-.09-.23Z"/>
      <path class="cls-1" d="M19.86,47.09c.15-.12,.29-.25,.44-.37,1.09-.69,2.12-1.48,3.45-1.69,.38-.06,.9-.25,1.07,.03,.28,.46-.28,.75-.58,.96-1.03,.71-1.92,1.58-2.83,2.41-1.28,.44-1.31-.57-1.55-1.34Z"/>
      <path class="cls-6" d="M60.77,52.89c-.08,.1-.15,.2-.23,.3-.32,.39-.73,.37-1.13,.2-.26-.11-.28-.37-.2-.66,.14-.49,.38-.78,.94-.63,.2,.27,.76,.26,.63,.79Z"/>
      <path class="cls-1" d="M60.77,52.89c.13-.53-.43-.52-.63-.79,.29-.32,.65-.16,.98-.13,0,0-.01,.05-.01,.04-.09,.3,.2,.75-.34,.87Z"/>
      <path class="cls-2" d="M54.94,50.68c-.01-.11-.02-.21-.03-.32,.46,0,.92-.12,1.37,.07-.02,.1-.04,.2-.05,.29-.43,.08-.86,.03-1.29-.04Z"/>
      <path class="cls-4" d="M53.13,46.27c-.06-.31-.12-.62-.19-.93,.35-.81,.94-.65,1.57-.4-.02,.36,.05,.63,.51,.51,.23-.06,.23,.13,.28,.27-.19,.55-.38,.97-1,.33-.44-.45-.71,.48-1.17,.23Z"/>
      <path class="cls-5" d="M57.21,46.21c0-.44-.06-.9,.51-.91,.49,0,.6,.46,.67,.79,.11,.52-.39,.59-.74,.65-.49,.09-.41-.31-.43-.54Z"/>
      <path class="cls-5" d="M59.69,44.04v2.51c-.44-.82-.25-1.66-.28-2.5,.09,0,.18,0,.28-.01Z"/>
      <path class="cls-5" d="M61.51,44.31c.7,.12,.58,.53,.41,1.03-.21,.63-.51,.36-.83,.16-.05-.47,.55-.7,.42-1.19Z"/>
      <path class="cls-1" d="M55.3,45.71c-.04-.14-.05-.33-.28-.27-.47,.13-.53-.15-.51-.51,.28,.02,.6-.04,.83,.08,.39,.2,.5,.49-.04,.7Z"/>
      <path class="cls-2" d="M61.51,44.31c.13,.49-.48,.72-.42,1.19-.46-.3-.43-.72-.27-1.16,.23,0,.47,0,.7,0v-.02Z"/>
      <path class="cls-5" d="M61.52,44.33c-.23,0-.47,0-.7,0,.23-.19,.47-.33,.7,0Z"/>
    </g>
  </g>
</svg>